<svg width="24" height="18" viewBox="0 0 24 18" fill="none" xmlns="http://www.w3.org/2000/svg">
<path fill-rule="evenodd" clip-rule="evenodd" d="M0.859122 0.85817C1.20831 0.509089 1.64002 0.253876 2.11419 0.116218C2.58836 -0.0214392 3.08962 -0.0370802 3.57145 0.0707471C4.05329 0.178574 4.50007 0.406375 4.87034 0.733007C5.24061 1.05964 5.52236 1.47452 5.68945 1.93913C7.12758 1.36538 8.69864 1.20997 10.2213 1.49086C11.744 1.77174 13.1562 2.47746 14.2949 3.52658L14.5376 3.75871L23.6566 12.8789C23.8585 13.0808 23.9798 13.3494 23.9977 13.6343C24.0156 13.9192 23.9289 14.2009 23.754 14.4265L23.6566 14.5367L21.17 17.0234C20.9943 17.1991 20.7673 17.3144 20.5218 17.3528C20.2763 17.3911 20.025 17.3505 19.8041 17.2367L19.674 17.1582L15.472 14.2506C14.2711 15.9915 12.4445 17.2015 10.3731 17.6284C8.30169 18.0553 6.14547 17.666 4.35411 16.5417C2.56275 15.4175 1.27455 13.6451 0.758165 11.5942C0.241785 9.54331 0.537092 7.37222 1.5825 5.53374C1.17326 5.32168 0.819794 5.01608 0.550819 4.64178C0.281843 4.26747 0.104935 3.83501 0.0344622 3.3795C-0.0360111 2.924 0.00193627 2.45829 0.145223 2.0202C0.28851 1.58211 0.533097 1.18399 0.859122 0.85817ZM4.58973 5.41768C3.98624 6.02244 3.52223 6.75181 3.2302 7.55472C2.93817 8.35763 2.82518 9.21467 2.89913 10.0658C2.97309 10.917 3.2322 11.7417 3.65833 12.4822C4.08446 13.2227 4.66731 13.8611 5.36607 14.3528C6.06482 14.8444 6.86259 15.1773 7.70352 15.3283C8.54445 15.4792 9.40821 15.4445 10.2343 15.2266C11.0604 15.0087 11.8289 14.6128 12.486 14.0667C13.1431 13.5207 13.6728 12.8376 14.0382 12.0652C14.1108 11.9113 14.216 11.7751 14.3466 11.666C14.4771 11.5568 14.6298 11.4774 14.7942 11.4332C14.9585 11.389 15.1305 11.3812 15.2981 11.4101C15.4658 11.4391 15.6252 11.5042 15.7652 11.601L20.2039 14.6727L21.17 13.7078L12.8798 5.41768C11.7805 4.31835 10.2895 3.70076 8.73479 3.70076C7.1801 3.70076 5.68908 4.31835 4.58973 5.41768ZM11.2209 7.07546C11.5519 7.40105 11.8152 7.78895 11.9955 8.21679C12.1759 8.64464 12.2697 9.10395 12.2717 9.56825C12.2736 10.0325 12.1836 10.4926 12.0068 10.922C11.8301 11.3513 11.5701 11.7414 11.2418 12.0697C10.9135 12.3981 10.5235 12.6582 10.0942 12.8351C9.66491 13.0119 9.20485 13.102 8.74055 13.1002C8.27626 13.0984 7.81692 13.0046 7.38903 12.8244C6.96115 12.6441 6.57319 12.3809 6.24752 12.05C5.58786 11.3903 5.21726 10.4956 5.21726 9.56273C5.21726 8.62983 5.58786 7.73513 6.24752 7.07546C6.90719 6.4158 7.80188 6.0452 8.73479 6.0452C9.6677 6.0452 10.5624 6.4158 11.2221 7.07546M7.90648 8.73443C7.79451 8.84258 7.70519 8.97195 7.64374 9.11498C7.5823 9.25802 7.54996 9.41187 7.5486 9.56754C7.54725 9.72321 7.57691 9.87759 7.63586 10.0217C7.69481 10.1658 7.78187 10.2967 7.89195 10.4067C8.00203 10.5168 8.13293 10.6039 8.27702 10.6628C8.4211 10.7218 8.57548 10.7514 8.73116 10.7501C8.88683 10.7487 9.04067 10.7164 9.18371 10.655C9.32675 10.5935 9.45612 10.5042 9.56427 10.3922C9.78426 10.1724 9.90791 9.87415 9.90802 9.56315C9.90813 9.25214 9.78469 8.95383 9.56486 8.73384C9.34502 8.51385 9.0468 8.39019 8.73579 8.39008C8.42479 8.38997 8.12647 8.51342 7.90648 8.73325M3.34698 2.51479C3.2929 2.4588 3.22822 2.41414 3.1567 2.38342C3.08518 2.35269 3.00826 2.33652 2.93042 2.33585C2.85258 2.33517 2.77539 2.35 2.70335 2.37948C2.63131 2.40895 2.56586 2.45248 2.51082 2.50752C2.45578 2.56256 2.41225 2.62801 2.38277 2.70005C2.3533 2.7721 2.33847 2.84929 2.33914 2.92712C2.33982 3.00496 2.35599 3.08188 2.38671 3.1534C2.41744 3.22492 2.46209 3.28961 2.51808 3.34368C2.62864 3.45046 2.77672 3.50955 2.93042 3.50821C3.08412 3.50688 3.23115 3.44523 3.33984 3.33654C3.44852 3.22785 3.51017 3.08083 3.51151 2.92712C3.51285 2.77342 3.45376 2.62535 3.34698 2.51479Z" fill="#F0F0F0"/>
</svg>
