<svg width="210" height="106" viewBox="0 0 210 106" fill="none" xmlns="http://www.w3.org/2000/svg">
<path d="M27.8554 50.1656V22.4199H42.755V26.6155H32.2962V34.195H41.5029V38.3906H32.2962V45.9301H42.755V50.1656H27.8554Z" fill="#BA6740"/>
<path d="M55.8778 50.1656L49.4176 34.195V50.1656H45.1794V22.4199H49.4205L55.8806 38.6725V22.4199H60.079V50.1656H55.8778Z" fill="#BA6740"/>
<path d="M73.2388 50.1656L66.7787 34.195V50.1656H62.5404V22.4199H66.7787L73.2388 38.6725V22.4199H77.4372V50.1656H73.2388Z" fill="#BA6740"/>
<path d="M79.9414 50.1656V22.4199H94.841V26.6155H84.3822V34.195H93.5889V38.3906H84.3822V45.9301H94.841V50.1656H79.9414Z" fill="#BA6740"/>
<path d="M107.964 50.1656L101.504 34.195V50.1656H97.2653V22.4199H101.504L107.964 38.6725V22.4199H112.165V50.1656H107.964Z" fill="#BA6740"/>
<path d="M125.325 38.3909H122.096V34.2779H129.566V42.5039C129.566 47.3005 127.105 50.69 122.096 50.69C116.121 50.69 114.681 46.2523 114.681 42.5039V30.0709C114.681 25.2743 117.105 21.8848 122.096 21.8848C128.354 21.8848 129.566 26.2826 129.566 30.0709V30.5551H125.325V30.0709C125.325 28.8632 125.285 25.9579 122.093 25.9579C118.902 25.9579 118.868 28.8746 118.868 30.0709V42.4925C118.868 43.6603 118.907 46.5656 122.096 46.5656C125.285 46.5656 125.325 43.6717 125.325 42.5039V38.3909Z" fill="#BA6740"/>
<path d="M142.649 50.1656L141.842 44.7196H136.268L135.461 50.1656H131.223L135.592 22.4199H142.537L146.898 50.1656H142.649ZM136.916 40.7661H141.194L139.055 26.4902L136.916 40.7661Z" fill="#BA6740"/>
<path d="M70.0102 55.8906C75.7145 55.8906 78.0846 59.9239 78.0846 63.715C78.0846 69.3177 74.9472 72.6246 70.2526 72.6246H67.3833V83.6334H63.185V55.8906H70.0102ZM67.3833 68.2695H69.7677C73.7608 68.2695 73.8435 65.0053 73.8435 63.8346C73.8435 62.8662 73.4014 59.9637 70.0102 59.9637H67.3833V68.2695Z" fill="#BA6740"/>
<path d="M91.099 71.3713L94.8068 83.6192H90.2775L86.9263 72.4252C85.8368 72.3825 84.9497 72.4252 84.1426 72.4252V83.6334H79.9014V55.8906H86.7266C92.4309 55.8906 94.8011 59.8441 94.8011 63.8346C94.8068 67.4235 93.4691 70.044 91.099 71.3713ZM86.4984 68.2667C90.3745 68.2667 90.617 65.2018 90.617 63.9115C90.617 62.7437 90.0922 59.9609 86.7409 59.9609H84.1568V68.2667H86.4984Z" fill="#BA6740"/>
<path d="M111.84 63.5533V75.9721C111.84 80.7316 109.378 84.1582 104.37 84.1582C99.3617 84.1582 96.9544 80.7402 96.9544 75.9721V63.5533C96.9544 58.7539 99.3788 55.3672 104.37 55.3672C109.361 55.3672 111.84 58.8763 111.84 63.5533ZM107.602 63.5533C107.602 62.3826 107.562 59.5201 104.37 59.5201C101.233 59.5201 101.141 62.3826 101.141 63.5533V75.9721C101.141 77.1427 101.221 80.0053 104.37 80.0053C107.562 80.0053 107.602 77.1427 107.602 75.9721V63.5533Z" fill="#BA6740"/>
<path d="M125.002 71.8591H121.774V67.7461H129.244V75.9721C129.244 80.7715 126.779 84.1582 121.774 84.1582C115.799 84.1582 114.358 79.7233 114.358 75.9721V63.5533C114.358 58.7539 116.78 55.3672 121.774 55.3672C128.031 55.3672 129.244 59.7622 129.244 63.5533V64.0375H125.002V63.5533C125.002 62.3428 124.963 59.4403 121.774 59.4403C118.585 59.4403 118.542 62.3428 118.542 63.5533V75.9721C118.542 77.1427 118.582 80.0452 121.774 80.0452C124.965 80.0452 125.002 77.1427 125.002 75.9721V71.8591Z" fill="#BA6740"/>
<path d="M142.851 71.3713L146.559 83.6192H142.044L138.693 72.4252C137.6 72.3825 136.713 72.4252 135.906 72.4252V83.6334H131.665V55.8906H138.49C144.195 55.8906 146.565 59.8441 146.565 63.8346C146.565 67.4235 145.233 70.044 142.851 71.3713ZM138.248 68.2667C142.124 68.2667 142.366 65.2018 142.366 63.9115C142.366 62.7437 141.842 59.9609 138.49 59.9609H135.906V68.2667H138.248Z" fill="#BA6740"/>
<path d="M148.998 83.6334V55.8906H163.897V60.0834H153.43V67.6685H162.637V71.8613H153.43V79.4037H163.889V83.6363L148.998 83.6334Z" fill="#BA6740"/>
<path d="M170.309 75.9721C170.309 77.3051 170.551 80.0452 173.66 80.0452C176.686 80.0452 177.011 77.1826 177.011 76.2142C177.011 75.0748 176.566 72.9073 173.538 71.617C168.732 69.4807 166.23 68.2702 166.23 63.1488C166.23 58.3067 168.612 55.3672 173.66 55.3672C179.675 55.3672 181.13 59.7622 181.13 63.5533V64.536H177.011V63.5676C177.011 62.357 176.686 59.4546 173.66 59.4546C170.106 59.4546 170.309 62.5877 170.309 63.4422C170.309 64.7724 171.033 66.2649 174.062 67.4299C177.616 68.8541 181.13 70.5631 181.13 76.2199C181.13 80.9794 178.666 84.1639 173.66 84.1639C167.671 84.1639 166.23 79.729 166.23 75.9778V73.4798H170.309V75.9721Z" fill="#BA6740"/>
<path d="M187.67 75.9721C187.67 77.3051 187.912 80.0452 191.021 80.0452C194.05 80.0452 194.372 77.1826 194.372 76.2142C194.372 75.0748 193.928 72.9073 190.901 71.617C186.096 69.4807 183.591 68.2702 183.591 63.1488C183.591 58.3067 185.973 55.3672 191.021 55.3672C197.039 55.3672 198.491 59.7622 198.491 63.5533V64.536H194.372V63.5676C194.372 62.357 194.05 59.4546 191.021 59.4546C187.467 59.4546 187.67 62.5877 187.67 63.4422C187.67 64.7724 188.397 66.2649 191.426 67.4299C194.98 68.8541 198.491 70.5631 198.491 76.2199C198.491 80.9794 196.03 84.1639 191.021 84.1639C185.032 84.1639 183.591 79.729 183.591 75.9778V73.4798H187.67V75.9721Z" fill="#BA6740"/>
<path d="M20.7812 38.409V50.1644H16.3697V38.409L11.1562 22.4648H15.5282L20.7812 38.409Z" fill="#BA6740"/>
<path d="M19.0312 22.4648L22.3125 32.4978L25.5938 22.4648H19.0312Z" fill="#BA6740"/>
</svg>
