<svg width="136" height="64" viewBox="0 0 136 64" fill="none" xmlns="http://www.w3.org/2000/svg">
<path d="M16.8554 29.3446V1.5H31.755V5.71056H21.2962V13.317H30.5029V17.5276H21.2962V25.094H31.755V29.3446H16.8554Z" fill="white"/>
<path d="M44.8778 29.3446L38.4177 13.317V29.3446H34.1794V1.5H38.4205L44.8806 17.8106V1.5H49.079V29.3446H44.8778Z" fill="white"/>
<path d="M62.2388 29.3446L55.7787 13.317V29.3446H51.5404V1.5H55.7787L62.2388 17.8106V1.5H66.4372V29.3446H62.2388Z" fill="white"/>
<path d="M68.9414 29.3446V1.5H83.841V5.71056H73.3822V13.317H82.5889V17.5276H73.3822V25.094H83.841V29.3446H68.9414Z" fill="white"/>
<path d="M96.9637 29.3446L90.5036 13.317V29.3446H86.2653V1.5H90.5036L96.9637 17.8106V1.5H101.165V29.3446H96.9637Z" fill="white"/>
<path d="M114.325 17.5279H111.096V13.4002H118.566V21.6555C118.566 26.4692 116.105 29.8708 111.096 29.8708C105.121 29.8708 103.681 25.4173 103.681 21.6555V9.1782C103.681 4.3645 106.105 0.962891 111.096 0.962891C117.354 0.962891 118.566 5.37641 118.566 9.1782V9.66415H114.325V9.1782C114.325 7.9662 114.285 5.05054 111.093 5.05054C107.902 5.05054 107.868 7.97763 107.868 9.1782V21.6441C107.868 22.8161 107.907 25.7317 111.096 25.7317C114.285 25.7317 114.325 22.8275 114.325 21.6555V17.5279Z" fill="white"/>
<path d="M131.649 29.3446L130.842 23.8792H125.268L124.461 29.3446H120.223L124.592 1.5H131.537L135.898 29.3446H131.649ZM125.916 19.9116H130.194L128.055 5.58479L125.916 19.9116Z" fill="white"/>
<path d="M7.01019 35.0898C12.7145 35.0898 15.0846 39.1375 15.0846 42.9421C15.0846 48.5648 11.9473 51.8835 7.25262 51.8835H4.38336V62.9316H0.184998V35.0898H7.01019ZM4.38336 47.5129H6.76776C10.7608 47.5129 10.8435 44.237 10.8435 43.0622C10.8435 42.0903 10.4014 39.1775 7.01019 39.1775H4.38336V47.5129Z" fill="white"/>
<path d="M28.099 50.6258L31.8068 62.9173H27.2775L23.9263 51.6834C22.8368 51.6405 21.9497 51.6834 21.1426 51.6834V62.9316H16.9014V35.0898H23.7266C29.4309 35.0898 31.8011 39.0574 31.8011 43.0622C31.8068 46.6639 30.4691 49.2937 28.099 50.6258ZM23.4984 47.51C27.3745 47.51 27.617 44.4343 27.617 43.1394C27.617 41.9674 27.0922 39.1746 23.7409 39.1746H21.1568V47.51H23.4984Z" fill="white"/>
<path d="M48.8398 42.7798V55.2428C48.8398 60.0193 46.3784 63.4581 41.37 63.4581C36.3616 63.4581 33.9544 60.0279 33.9544 55.2428V42.7798C33.9544 37.9632 36.3787 34.5645 41.37 34.5645C46.3613 34.5645 48.8398 38.0861 48.8398 42.7798ZM44.6015 42.7798C44.6015 41.6049 44.5616 38.7321 41.37 38.7321C38.2326 38.7321 38.1414 41.6049 38.1414 42.7798V55.2428C38.1414 56.4176 38.2212 59.2904 41.37 59.2904C44.5616 59.2904 44.6015 56.4176 44.6015 55.2428V42.7798Z" fill="white"/>
<path d="M62.0024 51.1151H58.7738V46.9875H66.2436V55.2428C66.2436 60.0594 63.7793 63.4581 58.7738 63.4581C52.7986 63.4581 51.3582 59.0074 51.3582 55.2428V42.7798C51.3582 37.9632 53.7797 34.5645 58.7738 34.5645C65.0314 34.5645 66.2436 38.9751 66.2436 42.7798V43.2657H62.0024V42.7798C62.0024 41.5649 61.9625 38.6521 58.7738 38.6521C55.5851 38.6521 55.5423 41.5649 55.5423 42.7798V55.2428C55.5423 56.4176 55.5823 59.3304 58.7738 59.3304C61.9654 59.3304 62.0024 56.4176 62.0024 55.2428V51.1151Z" fill="white"/>
<path d="M79.8512 50.6258L83.559 62.9173H79.0441L75.6928 51.6834C74.6004 51.6405 73.7134 51.6834 72.9062 51.6834V62.9316H68.6651V35.0898H75.4903C81.1946 35.0898 83.5647 39.0574 83.5647 43.0622C83.5647 46.6639 82.2328 49.2937 79.8512 50.6258ZM75.2479 47.51C79.1239 47.51 79.3664 44.4343 79.3664 43.1394C79.3664 41.9674 78.8416 39.1746 75.4903 39.1746H72.9062V47.51H75.2479Z" fill="white"/>
<path d="M85.9976 62.9316V35.0898H100.897V39.2975H90.4299V46.9097H99.6366V51.1174H90.4299V58.6867H100.889V62.9344L85.9976 62.9316Z" fill="white"/>
<path d="M107.309 55.2428C107.309 56.5806 107.551 59.3304 110.66 59.3304C113.686 59.3304 114.011 56.4577 114.011 55.4858C114.011 54.3424 113.566 52.1671 110.537 50.8722C105.732 48.7283 103.23 47.5134 103.23 42.3739C103.23 37.5144 105.612 34.5645 110.66 34.5645C116.675 34.5645 118.13 38.9751 118.13 42.7798V43.7659H114.011V42.7941C114.011 41.5792 113.686 38.6664 110.66 38.6664C107.106 38.6664 107.309 41.8107 107.309 42.6683C107.309 44.0032 108.033 45.5011 111.062 46.6702C114.616 48.0994 118.13 49.8145 118.13 55.4915C118.13 60.268 115.666 63.4638 110.66 63.4638C104.671 63.4638 103.23 59.0132 103.23 55.2485V52.7416H107.309V55.2428Z" fill="white"/>
<path d="M124.67 55.2428C124.67 56.5806 124.912 59.3304 128.021 59.3304C131.05 59.3304 131.372 56.4577 131.372 55.4858C131.372 54.3424 130.928 52.1671 127.901 50.8722C123.096 48.7283 120.591 47.5134 120.591 42.3739C120.591 37.5144 122.973 34.5645 128.021 34.5645C134.039 34.5645 135.491 38.9751 135.491 42.7798V43.7659H131.372V42.7941C131.372 41.5792 131.05 38.6664 128.021 38.6664C124.467 38.6664 124.67 41.8107 124.67 42.6683C124.67 44.0032 125.397 45.5011 128.426 46.6702C131.98 48.0994 135.491 49.8145 135.491 55.4915C135.491 60.268 133.03 63.4638 128.021 63.4638C122.032 63.4638 120.591 59.0132 120.591 55.2485V52.7416H124.67V55.2428Z" fill="white"/>
<path d="M9.78125 17.5459V29.3433H5.36967V17.5459L0.15625 1.54492H4.52816L9.78125 17.5459Z" fill="white"/>
<path d="M8.03125 1.54492L11.3125 11.6136L14.5938 1.54492H8.03125Z" fill="white"/>
</svg>
