<svg width="14" height="7" viewBox="0 0 14 7" fill="none" xmlns="http://www.w3.org/2000/svg">
<path d="M6.99506 5.17464L1.56881 0.251198C1.38425 0.0837336 1.16892 0.0026803 0.922832 0.00803947C0.676744 0.0133982 0.461416 0.100033 0.27685 0.267944C0.0922832 0.435854 0 0.631229 0 0.854068C0 1.07691 0.0922832 1.27228 0.27685 1.44019L5.94304 6.59809C6.09069 6.73206 6.2568 6.83254 6.44137 6.89952C6.62593 6.96651 6.8105 7 6.99506 7C7.17963 7 7.3642 6.96651 7.54876 6.89952C7.73333 6.83254 7.89944 6.73206 8.04709 6.59809L13.7317 1.44019C13.9163 1.27273 14.0056 1.07445 13.9997 0.84536C13.9938 0.616269 13.8983 0.418215 13.7133 0.251198C13.5282 0.0841804 13.3129 0.000448227 13.0673 1.90735e-06C12.8217 -0.000444889 12.6064 0.0832872 12.4213 0.251198L6.99506 5.17464Z" fill="#F0F0F0"/>
</svg>
