<svg width="40" height="24" viewBox="0 0 40 24" fill="none" xmlns="http://www.w3.org/2000/svg">
<path d="M15.1406 2.56641H25.6406V21.4331H15.1406V2.56641Z" fill="#FF5F00"/>
<path d="M15.808 12C15.808 8.16672 17.6079 4.76666 20.3745 2.5666C18.3413 0.966633 15.7747 0 12.9748 0C6.3412 0 0.974609 5.36659 0.974609 12C0.974609 18.6333 6.3412 24 12.9746 24C15.7746 24 18.3412 23.0334 20.3745 21.4332C17.6079 19.2666 15.808 15.8333 15.808 12Z" fill="#EB001B"/>
<path d="M39.8081 12C39.8081 18.6333 34.4415 24 27.8081 24C25.0081 24 22.4415 23.0334 20.4082 21.4332C23.2082 19.2333 24.9749 15.8333 24.9749 12C24.9749 8.16672 23.1748 4.76666 20.4082 2.5666C22.4414 0.966633 25.0081 0 27.8081 0C34.4415 0 39.8081 5.39999 39.8081 12Z" fill="#F79E1B"/>
</svg>
