<svg width="7" height="14" viewBox="0 0 7 14" fill="none" xmlns="http://www.w3.org/2000/svg">
<path d="M5.17464 7.00494L0.251198 12.4312C0.0837336 12.6158 0.0026803 12.8311 0.00803947 13.0772C0.0133982 13.3233 0.100033 13.5386 0.267944 13.7232C0.435854 13.9077 0.631229 14 0.854068 14C1.07691 14 1.27228 13.9077 1.44019 13.7232L6.59809 8.05696C6.73206 7.90931 6.83254 7.7432 6.89952 7.55863C6.96651 7.37407 7 7.1895 7 7.00494C7 6.82037 6.96651 6.6358 6.89952 6.45124C6.83254 6.26667 6.73206 6.10056 6.59809 5.95291L1.44019 0.268265C1.27273 0.0836986 1.07445 -0.00563142 0.84536 0.000274704C0.616269 0.00618083 0.418215 0.101663 0.251198 0.286722C0.0841804 0.47178 0.000448227 0.687108 1.90735e-06 0.932704C-0.000444889 1.1783 0.0832872 1.39363 0.251198 1.57869L5.17464 7.00494Z" fill="#F0F0F0"/>
</svg>
