<svg width="76" height="24" viewBox="0 0 76 24" fill="none" xmlns="http://www.w3.org/2000/svg">
<path d="M39.2575 7.67252C39.2151 11.0158 42.2371 12.8814 44.5134 13.9907C46.8522 15.1288 47.6378 15.8586 47.6286 16.8765C47.6111 18.434 45.763 19.1215 44.0336 19.1482C41.0163 19.1949 39.2619 18.3336 37.8672 17.6821L36.7802 22.7682C38.1796 23.413 40.7707 23.9753 43.4576 24C49.7647 24 53.891 20.8866 53.9134 16.0595C53.938 9.93323 45.4396 9.59414 45.4976 6.85586C45.5177 6.02555 46.3099 5.1395 48.046 4.91421C48.9054 4.80041 51.2776 4.71331 53.9671 5.95181L55.0227 1.03092C53.5763 0.504284 51.7174 0 49.403 0C43.4666 0 39.2912 3.15576 39.2575 7.67252ZM65.1658 0.423864C64.0141 0.423864 63.0436 1.09566 62.6104 2.12658L53.601 23.6386H59.9035L61.1577 20.1724H68.8592L69.5867 23.6386H75.1417L70.2943 0.423864H65.1658ZM66.0475 6.69502L67.8663 15.4124H62.8851L66.0475 6.69502ZM31.6161 0.424154L26.6482 23.6383H32.654L37.6196 0.423574L31.6161 0.424154ZM22.7315 0.424154L16.4804 16.2247L13.9517 2.78967C13.655 1.28988 12.4833 0.423864 11.182 0.423864H0.963439L0.820312 1.09798C2.91815 1.5532 5.30166 2.28741 6.7457 3.07302C7.62943 3.55291 7.88142 3.97242 8.17174 5.11279L12.9611 23.6386H19.3078L29.038 0.423864L22.7315 0.424154Z" fill="url(#paint0_linear_1267_13896)"/>
<defs>
<linearGradient id="paint0_linear_1267_13896" x1="3417.67" y1="72.144" x2="3487.14" y2="-2392.69" gradientUnits="userSpaceOnUse">
<stop stop-color="#222357"/>
<stop offset="1" stop-color="#254AA5"/>
</linearGradient>
</defs>
</svg>
