<svg width="99" height="73" viewBox="0 0 99 73" fill="none" xmlns="http://www.w3.org/2000/svg">
<mask id="path-1-inside-1_3016_12011" fill="white">
<path fill-rule="evenodd" clip-rule="evenodd" d="M4.42875 3.97177C5.84139 2.55955 7.58791 1.52707 9.50619 0.970168C11.4245 0.413267 13.4524 0.34999 15.4016 0.786211C17.3509 1.22243 19.1584 2.14401 20.6563 3.46542C22.1543 4.78683 23.2941 6.46523 23.9701 8.34487C29.7881 6.0237 36.1439 5.39501 42.304 6.53134C48.464 7.66768 54.1772 10.5227 58.7841 14.767L59.7659 15.7061L96.6573 52.6023C97.474 53.419 97.9646 54.5056 98.037 55.6583C98.1095 56.811 97.7589 57.9505 97.051 58.8631L96.6573 59.3089L86.5973 69.3689C85.8866 70.0798 84.9684 70.5465 83.9753 70.7016C82.9821 70.8568 81.9654 70.6924 81.0717 70.2322L80.5452 69.9144L63.5461 58.1516C58.6877 65.1944 51.2979 70.0897 42.918 71.8166C34.538 73.5435 25.8149 71.9687 18.5679 67.4205C11.3208 62.8724 6.10937 55.7021 4.02032 47.405C1.93128 39.108 3.12596 30.3247 7.35521 22.8871C5.69959 22.0291 4.26965 20.7928 3.18149 19.2786C2.09334 17.7643 1.37765 16.0147 1.09254 14.172C0.80744 12.3292 0.960958 10.4451 1.54063 8.67283C2.12031 6.90052 3.1098 5.28991 4.42875 3.97177ZM19.5211 22.4175C17.0797 24.8641 15.2025 27.8148 14.0211 31.063C12.8397 34.3112 12.3825 37.7785 12.6817 41.2219C12.9809 44.6653 14.0292 48.0017 15.7531 50.9975C17.477 53.9933 19.835 56.576 22.6618 58.5649C25.4887 60.5537 28.7161 61.9006 32.1181 62.5113C35.5202 63.1219 39.0145 62.9816 42.3566 62.1C45.6987 61.2184 48.8077 59.617 51.4659 57.4078C54.1241 55.1986 56.2673 52.435 57.7454 49.3106C58.0391 48.688 58.4647 48.1368 58.9929 47.6952C59.521 47.2537 60.1389 46.9324 60.8037 46.7537C61.4685 46.575 62.1642 46.5431 62.8426 46.6603C63.5209 46.7775 64.1656 47.0409 64.7319 47.4323L82.6891 59.8591L86.5973 55.9556L53.0592 22.4175C48.6118 17.9701 42.5798 15.4716 36.2902 15.4716C30.0006 15.4716 23.9686 17.9701 19.5211 22.4175ZM46.3478 29.1242C47.6869 30.4413 48.752 32.0106 49.4816 33.7415C50.2112 35.4723 50.5909 37.3305 50.5988 39.2089C50.6066 41.0872 50.2425 42.9485 49.5275 44.6854C48.8124 46.4223 47.7605 48.0005 46.4325 49.3288C45.1044 50.6572 43.5265 51.7094 41.7898 52.4249C40.053 53.1404 38.1918 53.5049 36.3135 53.4975C34.4352 53.4901 32.5769 53.1108 30.8459 52.3816C29.1148 51.6524 27.5453 50.5877 26.2278 49.2489C23.5591 46.5802 22.0598 42.9607 22.0598 39.1865C22.0598 35.4124 23.5591 31.7929 26.2278 29.1242C28.8965 26.4555 32.5161 24.9562 36.2902 24.9562C40.0643 24.9562 43.6839 26.4555 46.3526 29.1242M32.9392 35.8356C32.4862 36.2731 32.1249 36.7965 31.8763 37.3752C31.6277 37.9538 31.4969 38.5762 31.4914 39.206C31.4859 39.8358 31.6059 40.4603 31.8444 41.0432C32.0829 41.6261 32.4351 42.1557 32.8804 42.601C33.3258 43.0464 33.8553 43.3986 34.4382 43.6371C35.0211 43.8755 35.6457 43.9955 36.2755 43.9901C36.9053 43.9846 37.5276 43.8538 38.1063 43.6052C38.685 43.3566 39.2084 42.9953 39.6459 42.5423C40.5359 41.6529 41.0361 40.4464 41.0366 39.1882C41.037 37.93 40.5376 36.7232 39.6483 35.8332C38.7589 34.9432 37.5524 34.443 36.2942 34.4425C35.036 34.4421 33.8292 34.9415 32.9392 35.8308M14.4935 10.6737C14.2747 10.4472 14.013 10.2665 13.7237 10.1422C13.4344 10.018 13.1232 9.95253 12.8083 9.94979C12.4934 9.94706 12.1811 10.0071 11.8897 10.1263C11.5982 10.2455 11.3334 10.4216 11.1108 10.6443C10.8881 10.867 10.712 11.1318 10.5928 11.4232C10.4735 11.7147 10.4135 12.0269 10.4163 12.3418C10.419 12.6567 10.4844 12.9679 10.6087 13.2573C10.733 13.5466 10.9137 13.8083 11.1402 14.027C11.5874 14.459 12.1865 14.6981 12.8083 14.6927C13.4301 14.6873 14.0249 14.4378 14.4646 13.9981C14.9043 13.5585 15.1537 12.9636 15.1591 12.3418C15.1645 11.72 14.9255 11.121 14.4935 10.6737Z"/>
</mask>
<path fill-rule="evenodd" clip-rule="evenodd" d="M4.42875 3.97177C5.84139 2.55955 7.58791 1.52707 9.50619 0.970168C11.4245 0.413267 13.4524 0.34999 15.4016 0.786211C17.3509 1.22243 19.1584 2.14401 20.6563 3.46542C22.1543 4.78683 23.2941 6.46523 23.9701 8.34487C29.7881 6.0237 36.1439 5.39501 42.304 6.53134C48.464 7.66768 54.1772 10.5227 58.7841 14.767L59.7659 15.7061L96.6573 52.6023C97.474 53.419 97.9646 54.5056 98.037 55.6583C98.1095 56.811 97.7589 57.9505 97.051 58.8631L96.6573 59.3089L86.5973 69.3689C85.8866 70.0798 84.9684 70.5465 83.9753 70.7016C82.9821 70.8568 81.9654 70.6924 81.0717 70.2322L80.5452 69.9144L63.5461 58.1516C58.6877 65.1944 51.2979 70.0897 42.918 71.8166C34.538 73.5435 25.8149 71.9687 18.5679 67.4205C11.3208 62.8724 6.10937 55.7021 4.02032 47.405C1.93128 39.108 3.12596 30.3247 7.35521 22.8871C5.69959 22.0291 4.26965 20.7928 3.18149 19.2786C2.09334 17.7643 1.37765 16.0147 1.09254 14.172C0.80744 12.3292 0.960958 10.4451 1.54063 8.67283C2.12031 6.90052 3.1098 5.28991 4.42875 3.97177ZM19.5211 22.4175C17.0797 24.8641 15.2025 27.8148 14.0211 31.063C12.8397 34.3112 12.3825 37.7785 12.6817 41.2219C12.9809 44.6653 14.0292 48.0017 15.7531 50.9975C17.477 53.9933 19.835 56.576 22.6618 58.5649C25.4887 60.5537 28.7161 61.9006 32.1181 62.5113C35.5202 63.1219 39.0145 62.9816 42.3566 62.1C45.6987 61.2184 48.8077 59.617 51.4659 57.4078C54.1241 55.1986 56.2673 52.435 57.7454 49.3106C58.0391 48.688 58.4647 48.1368 58.9929 47.6952C59.521 47.2537 60.1389 46.9324 60.8037 46.7537C61.4685 46.575 62.1642 46.5431 62.8426 46.6603C63.5209 46.7775 64.1656 47.0409 64.7319 47.4323L82.6891 59.8591L86.5973 55.9556L53.0592 22.4175C48.6118 17.9701 42.5798 15.4716 36.2902 15.4716C30.0006 15.4716 23.9686 17.9701 19.5211 22.4175ZM46.3478 29.1242C47.6869 30.4413 48.752 32.0106 49.4816 33.7415C50.2112 35.4723 50.5909 37.3305 50.5988 39.2089C50.6066 41.0872 50.2425 42.9485 49.5275 44.6854C48.8124 46.4223 47.7605 48.0005 46.4325 49.3288C45.1044 50.6572 43.5265 51.7094 41.7898 52.4249C40.053 53.1404 38.1918 53.5049 36.3135 53.4975C34.4352 53.4901 32.5769 53.1108 30.8459 52.3816C29.1148 51.6524 27.5453 50.5877 26.2278 49.2489C23.5591 46.5802 22.0598 42.9607 22.0598 39.1865C22.0598 35.4124 23.5591 31.7929 26.2278 29.1242C28.8965 26.4555 32.5161 24.9562 36.2902 24.9562C40.0643 24.9562 43.6839 26.4555 46.3526 29.1242M32.9392 35.8356C32.4862 36.2731 32.1249 36.7965 31.8763 37.3752C31.6277 37.9538 31.4969 38.5762 31.4914 39.206C31.4859 39.8358 31.6059 40.4603 31.8444 41.0432C32.0829 41.6261 32.4351 42.1557 32.8804 42.601C33.3258 43.0464 33.8553 43.3986 34.4382 43.6371C35.0211 43.8755 35.6457 43.9955 36.2755 43.9901C36.9053 43.9846 37.5276 43.8538 38.1063 43.6052C38.685 43.3566 39.2084 42.9953 39.6459 42.5423C40.5359 41.6529 41.0361 40.4464 41.0366 39.1882C41.037 37.93 40.5376 36.7232 39.6483 35.8332C38.7589 34.9432 37.5524 34.443 36.2942 34.4425C35.036 34.4421 33.8292 34.9415 32.9392 35.8308M14.4935 10.6737C14.2747 10.4472 14.013 10.2665 13.7237 10.1422C13.4344 10.018 13.1232 9.95253 12.8083 9.94979C12.4934 9.94706 12.1811 10.0071 11.8897 10.1263C11.5982 10.2455 11.3334 10.4216 11.1108 10.6443C10.8881 10.867 10.712 11.1318 10.5928 11.4232C10.4735 11.7147 10.4135 12.0269 10.4163 12.3418C10.419 12.6567 10.4844 12.9679 10.6087 13.2573C10.733 13.5466 10.9137 13.8083 11.1402 14.027C11.5874 14.459 12.1865 14.6981 12.8083 14.6927C13.4301 14.6873 14.0249 14.4378 14.4646 13.9981C14.9043 13.5585 15.1537 12.9636 15.1591 12.3418C15.1645 11.72 14.9255 11.121 14.4935 10.6737Z" fill="#F0F0F0"/>
<path d="M4.42875 3.97177L6.26665 5.81082L6.26695 5.81052L4.42875 3.97177ZM23.9701 8.34487L21.5235 9.22474L22.4342 11.7569L24.9336 10.7598L23.9701 8.34487ZM58.7841 14.767L60.5813 12.8881L60.5637 12.8713L60.5458 12.8547L58.7841 14.767ZM59.7659 15.7061L61.6045 13.8677L61.584 13.8472L61.5631 13.8272L59.7659 15.7061ZM96.6573 52.6023L94.8187 54.4406L94.8188 54.4407L96.6573 52.6023ZM97.051 58.8631L99 60.584L99.0547 60.522L99.1054 60.4567L97.051 58.8631ZM96.6573 59.3089L98.4958 61.1474L98.5529 61.0903L98.6063 61.0298L96.6573 59.3089ZM86.5973 69.3689L84.7589 67.5305L84.7587 67.5306L86.5973 69.3689ZM81.0717 70.2322L79.7281 72.4581L79.8033 72.5035L79.8813 72.5437L81.0717 70.2322ZM80.5452 69.9144L79.0658 72.0524L79.1323 72.0985L79.2016 72.1403L80.5452 69.9144ZM63.5461 58.1516L65.0256 56.0136L62.8845 54.532L61.406 56.6752L63.5461 58.1516ZM7.35521 22.8871L9.61537 24.1722L10.9516 21.8223L8.55144 20.5786L7.35521 22.8871ZM19.5211 22.4175L17.6827 20.579L17.6807 20.5809L19.5211 22.4175ZM57.7454 49.3106L60.0956 50.4224L60.0969 50.4198L57.7454 49.3106ZM64.7319 47.4323L66.2114 45.2944L66.2102 45.2935L64.7319 47.4323ZM82.6891 59.8591L81.2095 61.9971L82.9924 63.2309L84.5264 61.6987L82.6891 59.8591ZM86.5973 55.9556L88.4347 57.7952L90.2754 55.9567L88.4358 54.1171L86.5973 55.9556ZM53.0592 22.4175L54.8977 20.579L54.8977 20.579L53.0592 22.4175ZM26.2278 49.2489L28.081 47.4253L28.0737 47.4178L28.0663 47.4104L26.2278 49.2489ZM22.0598 39.1865H19.4598H22.0598ZM36.2902 24.9562V27.5562V24.9562ZM39.6459 42.5423L37.8081 40.7031L37.7918 40.7194L37.7757 40.736L39.6459 42.5423ZM14.4935 10.6737L12.6234 12.48L14.4935 10.6737ZM11.1402 14.027L12.9464 12.1569L11.1402 14.027ZM6.26695 5.81052C7.36985 4.70795 8.73341 3.90187 10.2311 3.46708L8.78131 -1.52674C6.44241 -0.847727 4.31294 0.41114 2.59054 2.13302L6.26695 5.81052ZM10.2311 3.46708C11.7287 3.03228 13.312 2.98288 14.8338 3.32345L15.9694 -1.75103C13.5927 -2.2829 11.1202 -2.20575 8.78131 -1.52674L10.2311 3.46708ZM14.8338 3.32345C16.3557 3.66403 17.7669 4.38353 18.9363 5.4152L22.3763 1.51564C20.5499 -0.0955089 18.3461 -1.21916 15.9694 -1.75103L14.8338 3.32345ZM18.9363 5.4152C20.1058 6.44686 20.9958 7.75725 21.5235 9.22474L26.4167 7.46499C25.5925 5.17322 24.2027 3.12679 22.3763 1.51564L18.9363 5.4152ZM24.9336 10.7598C30.2962 8.6203 36.1545 8.04082 41.8323 9.0882L42.7756 3.97448C36.1334 2.7492 29.2801 3.42711 23.0067 5.92996L24.9336 10.7598ZM41.8323 9.0882C47.5102 10.1356 52.7761 12.7671 57.0224 16.6792L60.5458 12.8547C55.5782 8.27829 49.4179 5.19976 42.7756 3.97448L41.8323 9.0882ZM56.9869 16.6458L57.9687 17.585L61.5631 13.8272L60.5813 12.8881L56.9869 16.6458ZM57.9273 17.5444L94.8187 54.4406L98.4959 50.7639L61.6045 13.8677L57.9273 17.5444ZM94.8188 54.4407C95.1878 54.8097 95.4094 55.3006 95.4422 55.8215L100.632 55.4951C100.52 53.7106 99.7602 52.0283 98.4959 50.7639L94.8188 54.4407ZM95.4422 55.8215C95.4749 56.3423 95.3165 56.8572 94.9967 57.2695L99.1054 60.4567C100.201 59.0439 100.744 57.2797 100.632 55.4951L95.4422 55.8215ZM95.1021 57.1422L94.7084 57.588L98.6063 61.0298L99 60.584L95.1021 57.1422ZM94.8189 57.4705L84.7589 67.5305L88.4358 71.2074L98.4958 61.1474L94.8189 57.4705ZM84.7587 67.5306C84.4376 67.8518 84.0227 68.0627 83.574 68.1328L84.3766 73.2705C85.9142 73.0303 87.3357 72.3078 88.436 71.2072L84.7587 67.5306ZM83.574 68.1328C83.1252 68.2029 82.6658 68.1286 82.262 67.9207L79.8813 72.5437C81.2649 73.2562 82.839 73.5107 84.3766 73.2705L83.574 68.1328ZM82.4153 68.0062L81.8888 67.6885L79.2016 72.1403L79.7281 72.4581L82.4153 68.0062ZM82.0247 67.7764L65.0256 56.0136L62.0667 60.2897L79.0658 72.0524L82.0247 67.7764ZM61.406 56.6752C56.928 63.1665 50.1169 67.6785 42.3932 69.2701L43.4427 74.3631C52.4789 72.501 60.4474 67.2223 65.6863 59.628L61.406 56.6752ZM42.3932 69.2701C34.6695 70.8618 26.6295 69.4102 19.95 65.2183L17.1858 69.6227C25.0004 74.527 34.4066 76.2252 43.4427 74.3631L42.3932 69.2701ZM19.95 65.2183C13.2705 61.0263 8.46708 54.4175 6.54163 46.7702L1.49901 48.0398C3.75165 56.9866 9.37124 64.7184 17.1858 69.6227L19.95 65.2183ZM6.54163 46.7702C4.61618 39.1229 5.71731 31.0275 9.61537 24.1722L5.09505 21.6019C0.534611 29.622 -0.753625 39.093 1.49901 48.0398L6.54163 46.7702ZM8.55144 20.5786C7.25884 19.9088 6.14244 18.9436 5.29288 17.7613L1.0701 20.7958C2.39685 22.6421 4.14034 24.1495 6.15898 25.1955L8.55144 20.5786ZM5.29288 17.7613C4.44332 16.5791 3.88456 15.2131 3.66197 13.7744L-1.47689 14.5695C-1.12927 16.8163 -0.256653 18.9495 1.0701 20.7958L5.29288 17.7613ZM3.66197 13.7744C3.43938 12.3357 3.55924 10.8648 4.01181 9.48109L-0.930545 7.86458C-1.63732 10.0255 -1.8245 12.3226 -1.47689 14.5695L3.66197 13.7744ZM4.01181 9.48109C4.46438 8.09739 5.23691 6.83993 6.26665 5.81082L2.59084 2.13273C0.982686 3.73988 -0.223766 5.70365 -0.930545 7.86458L4.01181 9.48109ZM17.6807 20.5809C14.9716 23.2958 12.8886 26.57 11.5777 30.1743L16.4645 31.9517C17.5164 29.0596 19.1877 26.4324 21.3615 24.254L17.6807 20.5809ZM11.5777 30.1743C10.2667 33.7787 9.75949 37.626 10.0915 41.4469L15.272 40.9968C15.0056 37.9309 15.4126 34.8438 16.4645 31.9517L11.5777 30.1743ZM10.0915 41.4469C10.4235 45.2679 11.5866 48.9701 13.4996 52.2943L18.0066 49.7007C16.4717 47.0333 15.5383 44.0627 15.272 40.9968L10.0915 41.4469ZM13.4996 52.2943C15.4125 55.6185 18.029 58.4844 21.1657 60.6913L24.1579 56.4384C21.641 54.6676 19.5415 52.368 18.0066 49.7007L13.4996 52.2943ZM21.1657 60.6913C24.3025 62.8982 27.8838 64.3928 31.6588 65.0704L32.5775 59.9522C29.5484 59.4085 26.6748 58.2092 24.1579 56.4384L21.1657 60.6913ZM31.6588 65.0704C35.4338 65.748 39.3113 65.5922 43.0198 64.614L41.6935 59.586C38.7178 60.3709 35.6065 60.4959 32.5775 59.9522L31.6588 65.0704ZM43.0198 64.614C46.7283 63.6358 50.1781 61.8588 53.1277 59.4073L49.8041 55.4082C47.4373 57.3752 44.6692 58.8011 41.6935 59.586L43.0198 64.614ZM53.1277 59.4073C56.0774 56.9559 58.4555 53.8894 60.0956 50.4224L55.3951 48.1987C54.0791 50.9806 52.1708 53.4412 49.8041 55.4082L53.1277 59.4073ZM60.0969 50.4198C60.2296 50.1385 60.4219 49.8895 60.6605 49.69L57.3252 45.7005C56.5076 46.3841 55.8485 47.2375 55.3939 48.2013L60.0969 50.4198ZM60.6605 49.69C60.8992 49.4905 61.1784 49.3453 61.4787 49.2646L60.1287 44.2429C59.0995 44.5196 58.1429 45.0169 57.3252 45.7005L60.6605 49.69ZM61.4787 49.2646C61.7791 49.1838 62.0934 49.1694 62.3999 49.2224L63.2852 44.0983C62.235 43.9168 61.1579 43.9662 60.1287 44.2429L61.4787 49.2646ZM62.3999 49.2224C62.7064 49.2753 62.9977 49.3943 63.2536 49.5712L66.2102 45.2935C65.3335 44.6875 64.3354 44.2797 63.2852 44.0983L62.3999 49.2224ZM63.2523 49.5703L81.2095 61.9971L84.1686 57.7211L66.2114 45.2944L63.2523 49.5703ZM84.5264 61.6987L88.4347 57.7952L84.76 54.116L80.8517 58.0195L84.5264 61.6987ZM88.4358 54.1171L54.8977 20.579L51.2208 24.256L84.7589 57.7941L88.4358 54.1171ZM54.8977 20.579C49.9626 15.644 43.2693 12.8716 36.2902 12.8716V18.0716C41.8902 18.0716 47.2609 20.2962 51.2208 24.256L54.8977 20.579ZM36.2902 12.8716C29.311 12.8716 22.6177 15.644 17.6827 20.579L21.3596 24.256C25.3195 20.2962 30.6901 18.0716 36.2902 18.0716V12.8716ZM44.5246 30.9778C45.619 32.0543 46.4895 33.3368 47.0858 34.7514L51.8775 32.7316C51.0145 30.6844 49.7549 28.8284 48.171 27.2706L44.5246 30.9778ZM47.0858 34.7514C47.6821 36.166 47.9924 37.6846 47.9988 39.2197L53.1988 39.198C53.1894 36.9764 52.7404 34.7787 51.8775 32.7316L47.0858 34.7514ZM47.9988 39.2197C48.0052 40.7549 47.7077 42.2761 47.1232 43.6956L51.9317 45.6752C52.7774 43.6209 53.2081 41.4195 53.1988 39.198L47.9988 39.2197ZM47.1232 43.6956C46.5388 45.1151 45.6791 46.4049 44.5938 47.4905L48.2712 51.1671C49.8419 49.596 51.086 47.7295 51.9317 45.6752L47.1232 43.6956ZM44.5938 47.4905C43.5084 48.5762 42.2188 49.4362 40.7994 50.0209L42.7802 54.8289C44.8342 53.9827 46.7005 52.7381 48.2712 51.1671L44.5938 47.4905ZM40.7994 50.0209C39.38 50.6057 37.8589 50.9036 36.3238 50.8975L36.3032 56.0975C38.5248 56.1063 40.7261 55.6751 42.7802 54.8289L40.7994 50.0209ZM36.3238 50.8975C34.7887 50.8915 33.2699 50.5815 31.8552 49.9856L29.8365 54.7777C31.8838 55.6402 34.0817 56.0887 36.3032 56.0975L36.3238 50.8975ZM31.8552 49.9856C30.4405 49.3896 29.1577 48.5194 28.081 47.4253L24.3746 51.0726C25.9329 52.656 27.7892 53.9153 29.8365 54.7777L31.8552 49.9856ZM28.0663 47.4104C25.8852 45.2293 24.6598 42.2711 24.6598 39.1865H19.4598C19.4598 43.6502 21.233 47.9311 24.3893 51.0874L28.0663 47.4104ZM24.6598 39.1865C24.6598 36.102 25.8852 33.1438 28.0663 30.9626L24.3893 27.2857C21.233 30.442 19.4598 34.7229 19.4598 39.1865H24.6598ZM28.0663 30.9626C30.2474 28.7815 33.2056 27.5562 36.2902 27.5562V22.3562C31.8265 22.3562 27.5456 24.1294 24.3893 27.2857L28.0663 30.9626ZM36.2902 27.5562C39.3747 27.5562 42.333 28.7815 44.5141 30.9626L48.191 27.2857C45.0347 24.1294 40.7539 22.3562 36.2902 22.3562V27.5562ZM31.133 33.9654C30.4316 34.6428 29.8722 35.4531 29.4874 36.349L34.2652 38.4014C34.3775 38.1399 34.5408 37.9034 34.7455 37.7057L31.133 33.9654ZM29.4874 36.349C29.1025 37.2448 28.9 38.2084 28.8915 39.1834L34.0913 39.2286C34.0938 38.944 34.1529 38.6628 34.2652 38.4014L29.4874 36.349ZM28.8915 39.1834C28.883 40.1584 29.0688 41.1253 29.438 42.0278L34.2508 40.0587C34.1431 39.7953 34.0888 39.5131 34.0913 39.2286L28.8915 39.1834ZM29.438 42.0278C29.8073 42.9302 30.3525 43.7501 31.042 44.4395L34.7189 40.7626C34.5177 40.5613 34.3586 40.3221 34.2508 40.0587L29.438 42.0278ZM31.042 44.4395C31.7314 45.129 32.5513 45.6742 33.4537 46.0434L35.4228 41.2307C35.1594 41.1229 34.9201 40.9638 34.7189 40.7626L31.042 44.4395ZM33.4537 46.0434C34.3561 46.4127 35.3231 46.5984 36.2981 46.59L36.2529 41.3902C35.9683 41.3926 35.6861 41.3384 35.4228 41.2307L33.4537 46.0434ZM36.2981 46.59C37.2731 46.5815 38.2366 46.3789 39.1325 45.9941L37.0801 41.2163C36.8187 41.3286 36.5374 41.3877 36.2529 41.3902L36.2981 46.59ZM39.1325 45.9941C40.0284 45.6092 40.8387 45.0498 41.516 44.3485L37.7757 40.736C37.578 40.9407 37.3416 41.1039 37.0801 41.2163L39.1325 45.9941ZM41.4837 44.3814C42.8615 43.0046 43.6359 41.1369 43.6366 39.1891L38.4366 39.1873C38.4364 39.7559 38.2103 40.3012 37.8081 40.7031L41.4837 44.3814ZM43.6366 39.1891C43.6372 37.2414 42.8642 35.3731 41.4874 33.9954L37.8091 37.671C38.2111 38.0733 38.4368 38.6187 38.4366 39.1873L43.6366 39.1891ZM41.4874 33.9954C40.1106 32.6176 38.2429 31.8432 36.2952 31.8425L36.2933 37.0425C36.8619 37.0427 37.4072 37.2688 37.8091 37.671L41.4874 33.9954ZM36.2952 31.8425C34.3474 31.8418 32.4791 32.6149 31.1014 33.9917L34.777 37.67C35.1793 37.268 35.7247 37.0423 36.2933 37.0425L36.2952 31.8425ZM16.3636 8.86745C15.905 8.39261 15.3564 8.01388 14.7499 7.75333L12.6975 12.5312C12.6696 12.5192 12.6444 12.5018 12.6234 12.48L16.3636 8.86745ZM14.7499 7.75333C14.1434 7.49278 13.491 7.35563 12.8309 7.34989L12.7857 12.5497C12.7554 12.5494 12.7254 12.5431 12.6975 12.5312L14.7499 7.75333ZM12.8309 7.34989C12.1708 7.34416 11.5161 7.46994 10.9051 7.71992L12.8742 12.5327C12.8461 12.5442 12.816 12.55 12.7857 12.5497L12.8309 7.34989ZM10.9051 7.71992C10.2942 7.96989 9.73908 8.33904 9.27229 8.80583L12.9492 12.4828C12.9278 12.5042 12.9023 12.5212 12.8742 12.5327L10.9051 7.71992ZM9.27229 8.80583C8.8055 9.27262 8.43635 9.8277 8.18638 10.4387L12.9992 12.4077C12.9877 12.4358 12.9707 12.4613 12.9492 12.4828L9.27229 8.80583ZM8.18638 10.4387C7.9364 11.0497 7.81062 11.7043 7.81635 12.3644L13.0162 12.3192C13.0164 12.3496 13.0106 12.3797 12.9992 12.4077L8.18638 10.4387ZM7.81635 12.3644C7.82209 13.0245 7.95923 13.6769 8.21979 14.2835L12.9976 12.2311C13.0096 12.2589 13.0159 12.2889 13.0162 12.3192L7.81635 12.3644ZM8.21979 14.2835C8.48034 14.89 8.85908 15.4386 9.33391 15.8972L12.9464 12.1569C12.9682 12.178 12.9856 12.2032 12.9976 12.2311L8.21979 14.2835ZM9.33391 15.8972C10.2715 16.8028 11.5274 17.3039 12.8309 17.2926L12.7857 12.0928C12.8456 12.0922 12.9033 12.1153 12.9464 12.1569L9.33391 15.8972ZM12.8309 17.2926C14.1344 17.2812 15.3813 16.7584 16.3031 15.8366L12.6261 12.1597C12.6685 12.1173 12.7258 12.0933 12.7857 12.0928L12.8309 17.2926ZM16.3031 15.8366C17.2248 14.9149 17.7477 13.668 17.759 12.3644L12.5592 12.3192C12.5597 12.2593 12.5838 12.202 12.6261 12.1597L16.3031 15.8366ZM17.759 12.3644C17.7704 11.0609 17.2693 9.80509 16.3636 8.86745L12.6234 12.48C12.5817 12.4369 12.5587 12.3791 12.5592 12.3192L17.759 12.3644Z" fill="black" mask="url(#path-1-inside-1_3016_12011)"/>
</svg>
