<svg width="99" height="73" viewBox="0 0 99 73" fill="none" xmlns="http://www.w3.org/2000/svg">
<mask id="path-1-inside-1_2001_6083" fill="white">
<path fill-rule="evenodd" clip-rule="evenodd" d="M4.42899 3.97177C5.84164 2.55955 7.58815 1.52707 9.50644 0.970168C11.4247 0.413267 13.4526 0.34999 15.4019 0.786211C17.3512 1.22243 19.1586 2.14401 20.6566 3.46542C22.1545 4.78683 23.2944 6.46523 23.9704 8.34487C29.7884 6.0237 36.1442 5.39501 42.3042 6.53134C48.4643 7.66768 54.1774 10.5227 58.7843 14.767L59.7662 15.7061L96.6576 52.6023C97.4742 53.419 97.9648 54.5056 98.0373 55.6583C98.1098 56.811 97.7592 57.9505 97.0513 58.8631L96.6576 59.3089L86.5976 69.3689C85.8869 70.0798 84.9687 70.5465 83.9755 70.7016C82.9824 70.8568 81.9656 70.6924 81.0719 70.2322L80.5455 69.9144L63.5464 58.1516C58.6879 65.1944 51.2981 70.0897 42.9182 71.8166C34.5383 73.5435 25.8152 71.9687 18.5681 67.4205C11.3211 62.8724 6.10961 55.7021 4.02057 47.405C1.93152 39.108 3.1262 30.3247 7.35545 22.8871C5.69984 22.0291 4.26989 20.7928 3.18173 19.2786C2.09358 17.7643 1.37789 16.0147 1.09279 14.172C0.807684 12.3292 0.961202 10.4451 1.54088 8.67283C2.12055 6.90052 3.11004 5.28991 4.42899 3.97177ZM19.5214 22.4175C17.0799 24.8641 15.2027 27.8148 14.0213 31.063C12.8399 34.3112 12.3828 37.7785 12.682 41.2219C12.9811 44.6653 14.0294 48.0017 15.7533 50.9975C17.4773 53.9933 19.8352 56.576 22.6621 58.5649C25.4889 60.5537 28.7164 61.9006 32.1184 62.5113C35.5204 63.1219 39.0148 62.9816 42.3569 62.1C45.699 61.2184 48.8079 59.617 51.4661 57.4078C54.1244 55.1986 56.2675 52.435 57.7456 49.3106C58.0393 48.688 58.465 48.1368 58.9931 47.6952C59.5213 47.2537 60.1392 46.9324 60.804 46.7537C61.4687 46.575 62.1645 46.5431 62.8428 46.6603C63.5211 46.7775 64.1658 47.0409 64.7321 47.4323L82.6893 59.8591L86.5976 55.9556L53.0595 22.4175C48.612 17.9701 42.58 15.4716 36.2904 15.4716C30.0008 15.4716 23.9688 17.9701 19.5214 22.4175ZM46.3481 29.1242C47.6872 30.4413 48.7523 32.0106 49.4819 33.7415C50.2115 35.4723 50.5911 37.3305 50.599 39.2089C50.6069 41.0872 50.2428 42.9485 49.5277 44.6854C48.8126 46.4223 47.7607 48.0005 46.4327 49.3288C45.1047 50.6572 43.5268 51.7094 41.79 52.4249C40.0533 53.1404 38.1921 53.5049 36.3137 53.4975C34.4354 53.4901 32.5771 53.1108 30.8461 52.3816C29.1151 51.6524 27.5455 50.5877 26.228 49.2489C23.5593 46.5802 22.0601 42.9607 22.0601 39.1865C22.0601 35.4124 23.5593 31.7929 26.228 29.1242C28.8968 26.4555 32.5163 24.9562 36.2904 24.9562C40.0646 24.9562 43.6841 26.4555 46.3528 29.1242M32.9395 35.8356C32.4865 36.2731 32.1251 36.7965 31.8765 37.3752C31.628 37.9538 31.4971 38.5762 31.4916 39.206C31.4862 39.8358 31.6062 40.4603 31.8447 41.0432C32.0832 41.6261 32.4353 42.1557 32.8807 42.601C33.326 43.0464 33.8556 43.3986 34.4385 43.6371C35.0214 43.8755 35.646 43.9955 36.2757 43.9901C36.9055 43.9846 37.5279 43.8538 38.1066 43.6052C38.6852 43.3566 39.2086 42.9953 39.6461 42.5423C40.5361 41.6529 41.0364 40.4464 41.0368 39.1882C41.0373 37.93 40.5379 36.7232 39.6485 35.8332C38.7591 34.9432 37.5527 34.443 36.2945 34.4425C35.0363 34.4421 33.8295 34.9415 32.9395 35.8308M14.4937 10.6737C14.275 10.4472 14.0133 10.2665 13.724 10.1422C13.4346 10.018 13.1234 9.95253 12.8085 9.94979C12.4937 9.94706 12.1814 10.0071 11.8899 10.1263C11.5985 10.2455 11.3337 10.4216 11.111 10.6443C10.8883 10.867 10.7123 11.1318 10.593 11.4232C10.4738 11.7147 10.4138 12.0269 10.4165 12.3418C10.4192 12.6567 10.4847 12.9679 10.6089 13.2573C10.7332 13.5466 10.9139 13.8083 11.1404 14.027C11.5877 14.459 12.1867 14.6981 12.8085 14.6927C13.4303 14.6873 14.0252 14.4378 14.4649 13.9981C14.9046 13.5585 15.154 12.9636 15.1594 12.3418C15.1648 11.72 14.9257 11.121 14.4937 10.6737Z"/>
</mask>
<path fill-rule="evenodd" clip-rule="evenodd" d="M4.42899 3.97177C5.84164 2.55955 7.58815 1.52707 9.50644 0.970168C11.4247 0.413267 13.4526 0.34999 15.4019 0.786211C17.3512 1.22243 19.1586 2.14401 20.6566 3.46542C22.1545 4.78683 23.2944 6.46523 23.9704 8.34487C29.7884 6.0237 36.1442 5.39501 42.3042 6.53134C48.4643 7.66768 54.1774 10.5227 58.7843 14.767L59.7662 15.7061L96.6576 52.6023C97.4742 53.419 97.9648 54.5056 98.0373 55.6583C98.1098 56.811 97.7592 57.9505 97.0513 58.8631L96.6576 59.3089L86.5976 69.3689C85.8869 70.0798 84.9687 70.5465 83.9755 70.7016C82.9824 70.8568 81.9656 70.6924 81.0719 70.2322L80.5455 69.9144L63.5464 58.1516C58.6879 65.1944 51.2981 70.0897 42.9182 71.8166C34.5383 73.5435 25.8152 71.9687 18.5681 67.4205C11.3211 62.8724 6.10961 55.7021 4.02057 47.405C1.93152 39.108 3.1262 30.3247 7.35545 22.8871C5.69984 22.0291 4.26989 20.7928 3.18173 19.2786C2.09358 17.7643 1.37789 16.0147 1.09279 14.172C0.807684 12.3292 0.961202 10.4451 1.54088 8.67283C2.12055 6.90052 3.11004 5.28991 4.42899 3.97177ZM19.5214 22.4175C17.0799 24.8641 15.2027 27.8148 14.0213 31.063C12.8399 34.3112 12.3828 37.7785 12.682 41.2219C12.9811 44.6653 14.0294 48.0017 15.7533 50.9975C17.4773 53.9933 19.8352 56.576 22.6621 58.5649C25.4889 60.5537 28.7164 61.9006 32.1184 62.5113C35.5204 63.1219 39.0148 62.9816 42.3569 62.1C45.699 61.2184 48.8079 59.617 51.4661 57.4078C54.1244 55.1986 56.2675 52.435 57.7456 49.3106C58.0393 48.688 58.465 48.1368 58.9931 47.6952C59.5213 47.2537 60.1392 46.9324 60.804 46.7537C61.4687 46.575 62.1645 46.5431 62.8428 46.6603C63.5211 46.7775 64.1658 47.0409 64.7321 47.4323L82.6893 59.8591L86.5976 55.9556L53.0595 22.4175C48.612 17.9701 42.58 15.4716 36.2904 15.4716C30.0008 15.4716 23.9688 17.9701 19.5214 22.4175ZM46.3481 29.1242C47.6872 30.4413 48.7523 32.0106 49.4819 33.7415C50.2115 35.4723 50.5911 37.3305 50.599 39.2089C50.6069 41.0872 50.2428 42.9485 49.5277 44.6854C48.8126 46.4223 47.7607 48.0005 46.4327 49.3288C45.1047 50.6572 43.5268 51.7094 41.79 52.4249C40.0533 53.1404 38.1921 53.5049 36.3137 53.4975C34.4354 53.4901 32.5771 53.1108 30.8461 52.3816C29.1151 51.6524 27.5455 50.5877 26.228 49.2489C23.5593 46.5802 22.0601 42.9607 22.0601 39.1865C22.0601 35.4124 23.5593 31.7929 26.228 29.1242C28.8968 26.4555 32.5163 24.9562 36.2904 24.9562C40.0646 24.9562 43.6841 26.4555 46.3528 29.1242M32.9395 35.8356C32.4865 36.2731 32.1251 36.7965 31.8765 37.3752C31.628 37.9538 31.4971 38.5762 31.4916 39.206C31.4862 39.8358 31.6062 40.4603 31.8447 41.0432C32.0832 41.6261 32.4353 42.1557 32.8807 42.601C33.326 43.0464 33.8556 43.3986 34.4385 43.6371C35.0214 43.8755 35.646 43.9955 36.2757 43.9901C36.9055 43.9846 37.5279 43.8538 38.1066 43.6052C38.6852 43.3566 39.2086 42.9953 39.6461 42.5423C40.5361 41.6529 41.0364 40.4464 41.0368 39.1882C41.0373 37.93 40.5379 36.7232 39.6485 35.8332C38.7591 34.9432 37.5527 34.443 36.2945 34.4425C35.0363 34.4421 33.8295 34.9415 32.9395 35.8308M14.4937 10.6737C14.275 10.4472 14.0133 10.2665 13.724 10.1422C13.4346 10.018 13.1234 9.95253 12.8085 9.94979C12.4937 9.94706 12.1814 10.0071 11.8899 10.1263C11.5985 10.2455 11.3337 10.4216 11.111 10.6443C10.8883 10.867 10.7123 11.1318 10.593 11.4232C10.4738 11.7147 10.4138 12.0269 10.4165 12.3418C10.4192 12.6567 10.4847 12.9679 10.6089 13.2573C10.7332 13.5466 10.9139 13.8083 11.1404 14.027C11.5877 14.459 12.1867 14.6981 12.8085 14.6927C13.4303 14.6873 14.0252 14.4378 14.4649 13.9981C14.9046 13.5585 15.154 12.9636 15.1594 12.3418C15.1648 11.72 14.9257 11.121 14.4937 10.6737Z" fill="#F0F0F0"/>
<path d="M4.42899 3.97177L6.2669 5.81082L6.2672 5.81052L4.42899 3.97177ZM23.9704 8.34487L21.5238 9.22474L22.4344 11.7569L24.9338 10.7598L23.9704 8.34487ZM58.7843 14.767L60.5815 12.8881L60.5639 12.8713L60.546 12.8547L58.7843 14.767ZM59.7662 15.7061L61.6047 13.8677L61.5843 13.8472L61.5633 13.8272L59.7662 15.7061ZM96.6576 52.6023L94.819 54.4406L94.819 54.4407L96.6576 52.6023ZM97.0513 58.8631L99.0002 60.584L99.055 60.522L99.1056 60.4567L97.0513 58.8631ZM96.6576 59.3089L98.4961 61.1474L98.5531 61.0903L98.6066 61.0298L96.6576 59.3089ZM86.5976 69.3689L84.7591 67.5305L84.7589 67.5306L86.5976 69.3689ZM81.0719 70.2322L79.7284 72.4581L79.8035 72.5035L79.8816 72.5437L81.0719 70.2322ZM80.5455 69.9144L79.066 72.0524L79.1326 72.0985L79.2019 72.1403L80.5455 69.9144ZM63.5464 58.1516L65.0258 56.0136L62.8847 54.532L61.4062 56.6752L63.5464 58.1516ZM7.35545 22.8871L9.61561 24.1722L10.9518 21.8223L8.55168 20.5786L7.35545 22.8871ZM19.5214 22.4175L17.6829 20.579L17.681 20.5809L19.5214 22.4175ZM57.7456 49.3106L60.0959 50.4224L60.0971 50.4198L57.7456 49.3106ZM64.7321 47.4323L66.2117 45.2944L66.2104 45.2935L64.7321 47.4323ZM82.6893 59.8591L81.2098 61.9971L82.9926 63.2309L84.5267 61.6987L82.6893 59.8591ZM86.5976 55.9556L88.4349 57.7952L90.2757 55.9567L88.4361 54.1171L86.5976 55.9556ZM53.0595 22.4175L54.898 20.579L54.8979 20.579L53.0595 22.4175ZM26.228 49.2489L28.0812 47.4253L28.0739 47.4178L28.0665 47.4104L26.228 49.2489ZM22.0601 39.1865H19.4601H22.0601ZM36.2904 24.9562V27.5562V24.9562ZM39.6461 42.5423L37.8083 40.7031L37.792 40.7194L37.776 40.736L39.6461 42.5423ZM14.4937 10.6737L12.6236 12.48L14.4937 10.6737ZM11.1404 14.027L12.9467 12.1569L11.1404 14.027ZM6.2672 5.81052C7.37009 4.70795 8.73365 3.90187 10.2313 3.46708L8.78155 -1.52674C6.44265 -0.847727 4.31318 0.41114 2.59079 2.13302L6.2672 5.81052ZM10.2313 3.46708C11.729 3.03228 13.3122 2.98288 14.8341 3.32345L15.9697 -1.75103C13.593 -2.2829 11.1205 -2.20575 8.78155 -1.52674L10.2313 3.46708ZM14.8341 3.32345C16.3559 3.66403 17.7671 4.38353 18.9366 5.4152L22.3766 1.51564C20.5502 -0.0955089 18.3464 -1.21916 15.9697 -1.75103L14.8341 3.32345ZM18.9366 5.4152C20.1061 6.44686 20.996 7.75725 21.5238 9.22474L26.417 7.46499C25.5928 5.17322 24.203 3.12679 22.3766 1.51564L18.9366 5.4152ZM24.9338 10.7598C30.2964 8.6203 36.1547 8.04082 41.8326 9.0882L42.7759 3.97448C36.1337 2.7492 29.2804 3.42711 23.0069 5.92996L24.9338 10.7598ZM41.8326 9.0882C47.5104 10.1356 52.7764 12.7671 57.0227 16.6792L60.546 12.8547C55.5785 8.27829 49.4181 5.19976 42.7759 3.97448L41.8326 9.0882ZM56.9872 16.6458L57.969 17.585L61.5633 13.8272L60.5815 12.8881L56.9872 16.6458ZM57.9276 17.5444L94.819 54.4406L98.4962 50.7639L61.6047 13.8677L57.9276 17.5444ZM94.819 54.4407C95.188 54.8097 95.4097 55.3006 95.4424 55.8215L100.632 55.4951C100.52 53.7106 99.7605 52.0283 98.4962 50.7639L94.819 54.4407ZM95.4424 55.8215C95.4752 56.3423 95.3168 56.8572 94.9969 57.2695L99.1056 60.4567C100.202 59.0439 100.744 57.2797 100.632 55.4951L95.4424 55.8215ZM95.1023 57.1422L94.7086 57.588L98.6066 61.0298L99.0002 60.584L95.1023 57.1422ZM94.8191 57.4705L84.7591 67.5305L88.4361 71.2074L98.4961 61.1474L94.8191 57.4705ZM84.7589 67.5306C84.4378 67.8518 84.0229 68.0627 83.5742 68.1328L84.3768 73.2705C85.9144 73.0303 87.3359 72.3078 88.4362 71.2072L84.7589 67.5306ZM83.5742 68.1328C83.1255 68.2029 82.6661 68.1286 82.2623 67.9207L79.8816 72.5437C81.2651 73.2562 82.8393 73.5107 84.3768 73.2705L83.5742 68.1328ZM82.4155 68.0062L81.889 67.6885L79.2019 72.1403L79.7284 72.4581L82.4155 68.0062ZM82.0249 67.7764L65.0258 56.0136L62.0669 60.2897L79.066 72.0524L82.0249 67.7764ZM61.4062 56.6752C56.9282 63.1665 50.1171 67.6785 42.3934 69.2701L43.443 74.3631C52.4791 72.501 60.4476 67.2223 65.6865 59.628L61.4062 56.6752ZM42.3934 69.2701C34.6698 70.8618 26.6298 69.4102 19.9502 65.2183L17.1861 69.6227C25.0006 74.527 34.4068 76.2252 43.443 74.3631L42.3934 69.2701ZM19.9502 65.2183C13.2707 61.0263 8.46733 54.4175 6.54188 46.7702L1.49926 48.0398C3.75189 56.9866 9.37149 64.7184 17.1861 69.6227L19.9502 65.2183ZM6.54188 46.7702C4.61643 39.1229 5.71755 31.0275 9.61561 24.1722L5.0953 21.6019C0.534855 29.622 -0.753381 39.093 1.49926 48.0398L6.54188 46.7702ZM8.55168 20.5786C7.25909 19.9088 6.14268 18.9436 5.29313 17.7613L1.07034 20.7958C2.3971 22.6421 4.14059 24.1495 6.15923 25.1955L8.55168 20.5786ZM5.29313 17.7613C4.44357 16.5791 3.88481 15.2131 3.66222 13.7744L-1.47664 14.5695C-1.12902 16.8163 -0.256409 18.9495 1.07034 20.7958L5.29313 17.7613ZM3.66222 13.7744C3.43963 12.3357 3.55949 10.8648 4.01206 9.48109L-0.930301 7.86458C-1.63708 10.0255 -1.82426 12.3226 -1.47664 14.5695L3.66222 13.7744ZM4.01206 9.48109C4.46463 8.09739 5.23715 6.83993 6.2669 5.81082L2.59108 2.13273C0.98293 3.73988 -0.223522 5.70365 -0.930301 7.86458L4.01206 9.48109ZM17.681 20.5809C14.9718 23.2958 12.8889 26.57 11.5779 30.1743L16.4647 31.9517C17.5166 29.0596 19.188 26.4324 21.3618 24.254L17.681 20.5809ZM11.5779 30.1743C10.267 33.7787 9.75973 37.626 10.0917 41.4469L15.2722 40.9968C15.0058 37.9309 15.4128 34.8438 16.4647 31.9517L11.5779 30.1743ZM10.0917 41.4469C10.4237 45.2679 11.5869 48.9701 13.4998 52.2943L18.0069 49.7007C16.4719 47.0333 15.5386 44.0627 15.2722 40.9968L10.0917 41.4469ZM13.4998 52.2943C15.4128 55.6185 18.0292 58.4844 21.166 60.6913L24.1582 56.4384C21.6412 54.6676 19.5418 52.368 18.0069 49.7007L13.4998 52.2943ZM21.166 60.6913C24.3028 62.8982 27.884 64.3928 31.659 65.0704L32.5777 59.9522C29.5487 59.4085 26.6751 58.2092 24.1582 56.4384L21.166 60.6913ZM31.659 65.0704C35.434 65.748 39.3115 65.5922 43.02 64.614L41.6937 59.586C38.7181 60.3709 35.6068 60.4959 32.5777 59.9522L31.659 65.0704ZM43.02 64.614C46.7285 63.6358 50.1783 61.8588 53.128 59.4073L49.8043 55.4082C47.4375 57.3752 44.6694 58.8011 41.6937 59.586L43.02 64.614ZM53.128 59.4073C56.0776 56.9559 58.4558 53.8894 60.0959 50.4224L55.3953 48.1987C54.0793 50.9806 52.1711 53.4412 49.8043 55.4082L53.128 59.4073ZM60.0971 50.4198C60.2298 50.1385 60.4221 49.8895 60.6608 49.69L57.3255 45.7005C56.5078 46.3841 55.8488 47.2375 55.3941 48.2013L60.0971 50.4198ZM60.6608 49.69C60.8994 49.4905 61.1786 49.3453 61.479 49.2646L60.1289 44.2429C59.0997 44.5196 58.1431 45.0169 57.3255 45.7005L60.6608 49.69ZM61.479 49.2646C61.7793 49.1838 62.0937 49.1694 62.4002 49.2224L63.2854 44.0983C62.2352 43.9168 61.1581 43.9662 60.1289 44.2429L61.479 49.2646ZM62.4002 49.2224C62.7067 49.2753 62.998 49.3943 63.2538 49.5712L66.2104 45.2935C65.3337 44.6875 64.3356 44.2797 63.2854 44.0983L62.4002 49.2224ZM63.2526 49.5703L81.2098 61.9971L84.1688 57.7211L66.2117 45.2944L63.2526 49.5703ZM84.5267 61.6987L88.4349 57.7952L84.7602 54.116L80.852 58.0195L84.5267 61.6987ZM88.4361 54.1171L54.898 20.579L51.221 24.256L84.7591 57.7941L88.4361 54.1171ZM54.8979 20.579C49.9629 15.644 43.2696 12.8716 36.2904 12.8716V18.0716C41.8905 18.0716 47.2612 20.2962 51.221 24.256L54.8979 20.579ZM36.2904 12.8716C29.3113 12.8716 22.618 15.644 17.6829 20.579L21.3598 24.256C25.3197 20.2962 30.6904 18.0716 36.2904 18.0716V12.8716ZM44.5248 30.9778C45.6193 32.0543 46.4897 33.3368 47.086 34.7514L51.8777 32.7316C51.0148 30.6844 49.7551 28.8284 48.1713 27.2706L44.5248 30.9778ZM47.086 34.7514C47.6823 36.166 47.9926 37.6846 47.999 39.2197L53.199 39.198C53.1897 36.9764 52.7406 34.7787 51.8777 32.7316L47.086 34.7514ZM47.999 39.2197C48.0055 40.7549 47.7079 42.2761 47.1235 43.6956L51.9319 45.6752C52.7777 43.6209 53.2083 41.4195 53.199 39.198L47.999 39.2197ZM47.1235 43.6956C46.5391 45.1151 45.6794 46.4049 44.594 47.4905L48.2714 51.1671C49.8421 49.596 51.0862 47.7295 51.9319 45.6752L47.1235 43.6956ZM44.594 47.4905C43.5086 48.5762 42.2191 49.4362 40.7997 50.0209L42.7804 54.8289C44.8345 53.9827 46.7007 52.7381 48.2714 51.1671L44.594 47.4905ZM40.7997 50.0209C39.3803 50.6057 37.8591 50.9036 36.324 50.8975L36.3035 56.0975C38.525 56.1063 40.7263 55.6751 42.7804 54.8289L40.7997 50.0209ZM36.324 50.8975C34.7889 50.8915 33.2702 50.5815 31.8554 49.9856L29.8368 54.7777C31.8841 55.6402 34.0819 56.0887 36.3035 56.0975L36.324 50.8975ZM31.8554 49.9856C30.4407 49.3896 29.158 48.5194 28.0812 47.4253L24.3749 51.0726C25.9331 52.656 27.7894 53.9153 29.8368 54.7777L31.8554 49.9856ZM28.0665 47.4104C25.8854 45.2293 24.6601 42.2711 24.6601 39.1865H19.4601C19.4601 43.6502 21.2333 47.9311 24.3896 51.0874L28.0665 47.4104ZM24.6601 39.1865C24.6601 36.102 25.8854 33.1438 28.0665 30.9626L24.3896 27.2857C21.2333 30.442 19.4601 34.7229 19.4601 39.1865H24.6601ZM28.0665 30.9626C30.2476 28.7815 33.2059 27.5562 36.2904 27.5562V22.3562C31.8267 22.3562 27.5459 24.1294 24.3896 27.2857L28.0665 30.9626ZM36.2904 27.5562C39.375 27.5562 42.3332 28.7815 44.5143 30.9626L48.1913 27.2857C45.035 24.1294 40.7541 22.3562 36.2904 22.3562V27.5562ZM31.1332 33.9654C30.4319 34.6428 29.8725 35.4531 29.4876 36.349L34.2655 38.4014C34.3778 38.1399 34.541 37.9034 34.7457 37.7057L31.1332 33.9654ZM29.4876 36.349C29.1028 37.2448 28.9002 38.2084 28.8917 39.1834L34.0915 39.2286C34.094 38.944 34.1531 38.6628 34.2655 38.4014L29.4876 36.349ZM28.8917 39.1834C28.8833 40.1584 29.0691 41.1253 29.4383 42.0278L34.2511 40.0587C34.1433 39.7953 34.0891 39.5131 34.0915 39.2286L28.8917 39.1834ZM29.4383 42.0278C29.8075 42.9302 30.3527 43.7501 31.0422 44.4395L34.7192 40.7626C34.5179 40.5613 34.3588 40.3221 34.2511 40.0587L29.4383 42.0278ZM31.0422 44.4395C31.7317 45.129 32.5515 45.6742 33.454 46.0434L35.423 41.2307C35.1596 41.1229 34.9204 40.9638 34.7192 40.7626L31.0422 44.4395ZM33.454 46.0434C34.3564 46.4127 35.3233 46.5984 36.2983 46.59L36.2531 41.3902C35.9686 41.3926 35.6864 41.3384 35.423 41.2307L33.454 46.0434ZM36.2983 46.59C37.2733 46.5815 38.2369 46.3789 39.1328 45.9941L37.0804 41.2163C36.8189 41.3286 36.5377 41.3877 36.2531 41.3902L36.2983 46.59ZM39.1328 45.9941C40.0286 45.6092 40.8389 45.0498 41.5163 44.3485L37.776 40.736C37.5783 40.9407 37.3418 41.1039 37.0804 41.2163L39.1328 45.9941ZM41.484 44.3814C42.8617 43.0046 43.6361 41.1369 43.6368 39.1891L38.4368 39.1873C38.4366 39.7559 38.2105 40.3012 37.8083 40.7031L41.484 44.3814ZM43.6368 39.1891C43.6375 37.2414 42.8644 35.3731 41.4876 33.9954L37.8094 37.671C38.2113 38.0733 38.437 38.6187 38.4368 39.1873L43.6368 39.1891ZM41.4876 33.9954C40.1109 32.6176 38.2431 31.8432 36.2954 31.8425L36.2936 37.0425C36.8622 37.0427 37.4074 37.2688 37.8094 37.671L41.4876 33.9954ZM36.2954 31.8425C34.3476 31.8418 32.4794 32.6149 31.1016 33.9917L34.7773 37.67C35.1795 37.268 35.7249 37.0423 36.2936 37.0425L36.2954 31.8425ZM16.3639 8.86745C15.9053 8.39261 15.3567 8.01388 14.7502 7.75333L12.6978 12.5312C12.6699 12.5192 12.6447 12.5018 12.6236 12.48L16.3639 8.86745ZM14.7502 7.75333C14.1436 7.49278 13.4913 7.35563 12.8311 7.34989L12.7859 12.5497C12.7556 12.5494 12.7256 12.5431 12.6978 12.5312L14.7502 7.75333ZM12.8311 7.34989C12.171 7.34416 11.5164 7.46994 10.9054 7.71992L12.8744 12.5327C12.8464 12.5442 12.8163 12.55 12.7859 12.5497L12.8311 7.34989ZM10.9054 7.71992C10.2944 7.96989 9.73932 8.33904 9.27254 8.80583L12.9495 12.4828C12.928 12.5042 12.9025 12.5212 12.8744 12.5327L10.9054 7.71992ZM9.27254 8.80583C8.80575 9.27262 8.43659 9.8277 8.18662 10.4387L12.9994 12.4077C12.9879 12.4358 12.9709 12.4613 12.9495 12.4828L9.27254 8.80583ZM8.18662 10.4387C7.93665 11.0497 7.81086 11.7043 7.8166 12.3644L13.0164 12.3192C13.0167 12.3496 13.0109 12.3797 12.9994 12.4077L8.18662 10.4387ZM7.8166 12.3644C7.82233 13.0245 7.95948 13.6769 8.22003 14.2835L12.9979 12.2311C13.0098 12.2589 13.0161 12.2889 13.0164 12.3192L7.8166 12.3644ZM8.22003 14.2835C8.48058 14.89 8.85933 15.4386 9.33416 15.8972L12.9467 12.1569C12.9685 12.178 12.9859 12.2032 12.9979 12.2311L8.22003 14.2835ZM9.33416 15.8972C10.2718 16.8028 11.5276 17.3039 12.8311 17.2926L12.7859 12.0928C12.8459 12.0922 12.9036 12.1153 12.9467 12.1569L9.33416 15.8972ZM12.8311 17.2926C14.1347 17.2812 15.3816 16.7584 16.3033 15.8366L12.6264 12.1597C12.6687 12.1173 12.726 12.0933 12.7859 12.0928L12.8311 17.2926ZM16.3033 15.8366C17.2251 14.9149 17.7479 13.668 17.7593 12.3644L12.5595 12.3192C12.56 12.2593 12.584 12.202 12.6264 12.1597L16.3033 15.8366ZM17.7593 12.3644C17.7706 11.0609 17.2695 9.80509 16.3639 8.86745L12.6236 12.48C12.582 12.4369 12.5589 12.3791 12.5595 12.3192L17.7593 12.3644Z" fill="black" mask="url(#path-1-inside-1_2001_6083)"/>
</svg>
