<svg width="136" height="64" viewBox="0 0 136 64" fill="none" xmlns="http://www.w3.org/2000/svg">
<path d="M16.8555 29.3446V1.5H31.7551V5.71056H21.2963V13.317H30.503V17.5276H21.2963V25.094H31.7551V29.3446H16.8555Z" fill="#B9B9B9"/>
<path d="M44.8781 29.3446L38.418 13.317V29.3446H34.1797V1.5H38.4208L44.8809 17.8106V1.5H49.0793V29.3446H44.8781Z" fill="#B9B9B9"/>
<path d="M62.2394 29.3446L55.7793 13.317V29.3446H51.541V1.5H55.7793L62.2394 17.8106V1.5H66.4378V29.3446H62.2394Z" fill="#B9B9B9"/>
<path d="M68.9414 29.3446V1.5H83.841V5.71056H73.3822V13.317H82.5889V17.5276H73.3822V25.094H83.841V29.3446H68.9414Z" fill="#B9B9B9"/>
<path d="M96.964 29.3446L90.5039 13.317V29.3446H86.2656V1.5H90.5039L96.964 17.8106V1.5H101.165V29.3446H96.964Z" fill="#B9B9B9"/>
<path d="M114.326 17.5279H111.097V13.4002H118.567V21.6555C118.567 26.4692 116.106 29.8708 111.097 29.8708C105.122 29.8708 103.682 25.4173 103.682 21.6555V9.1782C103.682 4.3645 106.106 0.962891 111.097 0.962891C117.355 0.962891 118.567 5.37641 118.567 9.1782V9.66415H114.326V9.1782C114.326 7.9662 114.286 5.05054 111.094 5.05054C107.903 5.05054 107.869 7.97763 107.869 9.1782V21.6441C107.869 22.8161 107.909 25.7317 111.097 25.7317C114.286 25.7317 114.326 22.8275 114.326 21.6555V17.5279Z" fill="#B9B9B9"/>
<path d="M131.648 29.3446L130.841 23.8792H125.268L124.461 29.3446H120.223L124.592 1.5H131.537L135.898 29.3446H131.648ZM125.916 19.9116H130.194L128.055 5.58479L125.916 19.9116Z" fill="#B9B9B9"/>
<path d="M7.01074 35.0898C12.715 35.0898 15.0852 39.1375 15.0852 42.9421C15.0852 48.5648 11.9478 51.8835 7.25317 51.8835H4.38391V62.9316H0.185547V35.0898H7.01074ZM4.38391 47.5129H6.76831C10.7613 47.5129 10.844 44.237 10.844 43.0622C10.844 42.0903 10.4019 39.1775 7.01074 39.1775H4.38391V47.5129Z" fill="#B9B9B9"/>
<path d="M28.0999 50.6258L31.8077 62.9173H27.2785L23.9272 51.6834C22.8377 51.6405 21.9506 51.6834 21.1435 51.6834V62.9316H16.9023V35.0898H23.7275C29.4318 35.0898 31.802 39.0574 31.802 43.0622C31.8077 46.6639 30.47 49.2937 28.0999 50.6258ZM23.4994 47.51C27.3754 47.51 27.6179 44.4343 27.6179 43.1394C27.6179 41.9674 27.0931 39.1746 23.7418 39.1746H21.1577V47.51H23.4994Z" fill="#B9B9B9"/>
<path d="M48.8404 42.7798V55.2428C48.8404 60.0193 46.379 63.4581 41.3707 63.4581C36.3623 63.4581 33.9551 60.0279 33.9551 55.2428V42.7798C33.9551 37.9632 36.3794 34.5645 41.3707 34.5645C46.3619 34.5645 48.8404 38.0861 48.8404 42.7798ZM44.6022 42.7798C44.6022 41.6049 44.5622 38.7321 41.3707 38.7321C38.2333 38.7321 38.142 41.6049 38.142 42.7798V55.2428C38.142 56.4176 38.2219 59.2904 41.3707 59.2904C44.5622 59.2904 44.6022 56.4176 44.6022 55.2428V42.7798Z" fill="#B9B9B9"/>
<path d="M62.0036 51.1151H58.775V46.9875H66.2447V55.2428C66.2447 60.0594 63.7805 63.4581 58.775 63.4581C52.7997 63.4581 51.3594 59.0074 51.3594 55.2428V42.7798C51.3594 37.9632 53.7809 34.5645 58.775 34.5645C65.0326 34.5645 66.2447 38.9751 66.2447 42.7798V43.2657H62.0036V42.7798C62.0036 41.5649 61.9637 38.6521 58.775 38.6521C55.5863 38.6521 55.5435 41.5649 55.5435 42.7798V55.2428C55.5435 56.4176 55.5834 59.3304 58.775 59.3304C61.9665 59.3304 62.0036 56.4176 62.0036 55.2428V51.1151Z" fill="#B9B9B9"/>
<path d="M79.8521 50.6258L83.5599 62.9173H79.045L75.6937 51.6834C74.6013 51.6405 73.7143 51.6834 72.9072 51.6834V62.9316H68.666V35.0898H75.4912C81.1955 35.0898 83.5656 39.0574 83.5656 43.0622C83.5656 46.6639 82.2337 49.2937 79.8521 50.6258ZM75.2488 47.51C79.1248 47.51 79.3673 44.4343 79.3673 43.1394C79.3673 41.9674 78.8425 39.1746 75.4912 39.1746H72.9072V47.51H75.2488Z" fill="#B9B9B9"/>
<path d="M85.998 62.9316V35.0898H100.898V39.2975H90.4303V46.9097H99.637V51.1174H90.4303V58.6867H100.889V62.9344L85.998 62.9316Z" fill="#B9B9B9"/>
<path d="M107.309 55.2428C107.309 56.5806 107.551 59.3304 110.66 59.3304C113.686 59.3304 114.012 56.4577 114.012 55.4858C114.012 54.3424 113.567 52.1671 110.538 50.8722C105.732 48.7283 103.23 47.5134 103.23 42.3739C103.23 37.5144 105.612 34.5645 110.66 34.5645C116.675 34.5645 118.13 38.9751 118.13 42.7798V43.7659H114.012V42.7941C114.012 41.5792 113.686 38.6664 110.66 38.6664C107.107 38.6664 107.309 41.8107 107.309 42.6683C107.309 44.0032 108.033 45.5011 111.062 46.6702C114.616 48.0994 118.13 49.8145 118.13 55.4915C118.13 60.268 115.666 63.4638 110.66 63.4638C104.671 63.4638 103.23 59.0132 103.23 55.2485V52.7416H107.309V55.2428Z" fill="#B9B9B9"/>
<path d="M124.67 55.2428C124.67 56.5806 124.913 59.3304 128.022 59.3304C131.051 59.3304 131.373 56.4577 131.373 55.4858C131.373 54.3424 130.928 52.1671 127.902 50.8722C123.096 48.7283 120.592 47.5134 120.592 42.3739C120.592 37.5144 122.973 34.5645 128.022 34.5645C134.04 34.5645 135.491 38.9751 135.491 42.7798V43.7659H131.373V42.7941C131.373 41.5792 131.051 38.6664 128.022 38.6664C124.468 38.6664 124.67 41.8107 124.67 42.6683C124.67 44.0032 125.398 45.5011 128.427 46.6702C131.98 48.0994 135.491 49.8145 135.491 55.4915C135.491 60.268 133.03 63.4638 128.022 63.4638C122.032 63.4638 120.592 59.0132 120.592 55.2485V52.7416H124.67V55.2428Z" fill="#B9B9B9"/>
<path d="M9.78125 17.5459V29.3433H5.36967V17.5459L0.15625 1.54492H4.52816L9.78125 17.5459Z" fill="#B9B9B9"/>
<path d="M8.03125 1.54492L11.3125 11.6136L14.5938 1.54492H8.03125Z" fill="#B9B9B9"/>
</svg>
