<svg width="300" height="52" viewBox="0 0 300 52" fill="none" xmlns="http://www.w3.org/2000/svg">
<g clip-path="url(#clip0_476_11337)">
<path d="M51.2129 12.6629H59.6162V15.6557C61.6882 13.3537 64.5659 12.2025 68.2496 12.2025C71.4727 12.2025 74.3506 13.2384 76.6528 15.1954C78.9551 17.1522 80.2213 20.3752 80.2213 24.6342V43.3968H71.9332V25.9003C71.9332 23.4831 71.2426 21.7564 69.9763 20.7205C68.7101 19.6845 67.3287 19.2241 65.7171 19.2241C64.1055 19.2241 62.7242 19.6845 61.4579 20.7205C60.1917 21.7564 59.6162 23.4831 59.6162 25.9003V43.3968H51.328V12.6629H51.2129ZM85.4085 16.5735C88.1711 13.5808 91.8547 12.0843 96.4593 12.0843C100.949 12.0843 104.517 13.5808 107.165 16.5735C109.812 19.5663 111.194 23.365 111.194 28.0843V30.3865H89.2071C89.5525 32.4585 90.4734 34.0699 91.8547 35.221C93.2361 36.3721 94.8476 36.9476 96.8046 36.9476C100.028 36.9476 102.445 35.9116 104.057 33.7247L109.697 37.8684C108.316 39.8254 106.589 41.3217 104.287 42.4728C101.985 43.6239 99.4521 44.1995 96.6895 44.1995C92.085 44.1995 88.2862 42.703 85.4085 39.7102C82.5306 36.7175 81.0342 32.8037 81.0342 28.1995C81.1492 23.365 82.5306 19.5663 85.4085 16.5735ZM89.3222 25.0915H103.366C103.021 23.1347 102.215 21.6383 100.949 20.4872C99.7975 19.3361 98.301 18.7606 96.3441 18.7606C94.5024 18.7606 92.8908 19.3361 91.6245 20.4872C90.5885 21.5232 89.6676 23.0196 89.3222 25.0915ZM108.419 12.6604H117.053L123.039 31.5381L129.6 12.6604H135.816L142.378 31.5381L148.248 12.6604H156.882L146.866 43.3942H138.695L132.592 25.3223L126.492 43.3942H118.319L108.419 12.6604ZM160.111 33.1534C160.456 34.1894 161.492 35.1102 163.219 36.1462C164.83 37.1822 166.557 37.6426 168.398 37.6426C171.392 37.6426 172.774 36.7218 172.774 34.765C172.774 34.3045 172.658 33.844 172.428 33.4987C172.197 33.1534 171.737 32.808 171.276 32.5779C170.701 32.2325 170.241 32.1174 169.896 31.8872C169.55 31.7721 168.86 31.5418 168.053 31.3117C167.247 31.0815 166.787 30.9663 166.557 30.8512C166.557 30.8512 166.097 30.7361 165.406 30.506C164.715 30.2757 164.139 30.1606 163.795 29.9304C163.45 29.8152 162.874 29.585 162.068 29.2398C161.261 28.8944 160.687 28.549 160.226 28.3189C159.765 27.9735 159.19 27.6282 158.614 27.1678C158.038 26.7073 157.463 26.1318 157.233 25.5562C156.887 24.9808 156.542 24.4053 156.313 23.5994C156.082 22.9088 155.967 22.1031 155.967 21.2974C155.967 18.1893 157.118 15.8873 159.42 14.2757C161.723 12.6642 164.715 11.9736 168.284 11.9736C171.392 11.9736 174.155 12.5491 176.342 13.8153C178.529 15.0814 180.14 16.5779 180.947 18.4196L175.535 21.8728C174.96 21.0671 174.039 20.2613 172.543 19.4555C171.047 18.6498 169.55 18.3045 168.053 18.3045C165.406 18.3045 164.139 19.2253 164.139 20.952C164.139 21.4124 164.255 21.8728 164.484 22.2181C164.715 22.5635 165.175 22.9088 165.637 23.1391C166.211 23.4843 166.673 23.5994 167.018 23.8297C167.363 23.9448 167.938 24.175 168.744 24.4053C169.55 24.6354 170.01 24.7505 170.241 24.8656C170.241 24.8656 170.587 24.9808 171.161 25.0959L172.312 25.4411C172.543 25.5562 173.003 25.6714 173.579 25.9016C174.155 26.1318 174.615 26.3621 175.075 26.5922C175.421 26.8225 175.881 27.0527 176.457 27.3979C177.033 27.7433 177.493 28.0887 177.838 28.4339C178.184 28.7793 178.529 29.1246 178.989 29.585C179.449 30.0455 179.795 30.506 180.025 30.9663C180.256 31.4268 180.485 32.0023 180.716 32.5779C180.947 33.1534 180.947 33.844 180.947 34.4196C180.947 37.6426 179.795 40.0598 177.608 41.7865C175.421 43.5131 172.312 44.3188 168.284 44.3188C164.715 44.3188 161.837 43.6282 159.42 42.1318C157.002 40.6354 155.391 38.9087 154.586 36.8368L160.111 33.1534ZM185.091 16.5755C187.854 13.5827 191.308 12.2014 195.451 12.2014C199.136 12.2014 202.013 13.4676 204.315 15.8849V0H212.604V43.3956H204.315V40.1726C202.128 42.705 199.136 43.8561 195.451 43.8561C191.308 43.8561 187.74 42.3596 185.091 39.3669C182.329 36.3741 180.948 32.5755 180.948 27.9712C180.948 23.3668 182.329 19.5683 185.091 16.5755ZM189.005 28.0863C189.005 30.3885 189.696 32.3453 191.192 33.8416C192.574 35.3381 194.416 36.1438 196.718 36.1438C199.02 36.1438 200.863 35.3381 202.243 33.8416C203.624 32.3453 204.315 30.3885 204.315 28.0863C204.315 25.7841 203.624 23.8273 202.243 22.331C200.863 20.8345 199.02 20.0288 196.718 20.0288C194.416 20.0288 192.574 20.8345 191.192 22.331C189.696 23.8273 189.005 25.7841 189.005 28.0863ZM217.895 16.5735C220.658 13.5808 224.341 12.0843 228.945 12.0843C233.434 12.0843 237.003 13.5808 239.651 16.5735C242.298 19.5663 243.679 23.365 243.679 28.0843V30.3865H221.692C222.038 32.4585 222.959 34.0699 224.341 35.221C225.722 36.3721 227.333 36.9476 229.291 36.9476C232.514 36.9476 234.932 35.9116 236.542 33.7247L242.183 37.8684C240.802 39.8254 239.075 41.3217 236.773 42.4728C234.47 43.6239 231.938 44.1995 229.175 44.1995C224.571 44.1995 220.772 42.703 217.895 39.7102C215.017 36.7175 213.521 32.8037 213.521 28.1995C213.75 23.365 215.132 19.5663 217.895 16.5735ZM221.808 25.0915H235.852C235.506 23.1347 234.701 21.6383 233.434 20.4872C232.283 19.3361 230.787 18.7606 228.831 18.7606C226.873 18.7606 225.377 19.3361 224.11 20.4872C223.074 21.5232 222.268 23.0196 221.808 25.0915Z" fill="#FF4473"/>
<path d="M248.072 33.1534C248.418 34.1894 249.454 35.1102 251.181 36.1462C252.793 37.1822 254.518 37.6426 256.361 37.6426C259.354 37.6426 260.735 36.7218 260.735 34.765C260.735 34.3045 260.621 33.844 260.39 33.4987C260.159 33.1534 259.699 32.808 259.239 32.5779C258.663 32.2325 258.203 32.1174 257.858 31.8872C257.512 31.7721 256.821 31.5418 256.016 31.3117C255.209 31.0815 254.749 30.9663 254.518 30.8512C254.518 30.8512 254.058 30.7361 253.368 30.506C252.677 30.2757 252.102 30.1606 251.757 29.9304C251.411 29.8152 250.835 29.585 250.03 29.2398C249.224 28.8944 248.648 28.549 248.188 28.3189C247.727 27.9735 247.152 27.6282 246.576 27.1678C246.001 26.7073 245.425 26.1318 245.195 25.5562C244.849 24.9808 244.504 24.4053 244.274 23.5994C244.044 22.9088 243.929 22.1031 243.929 21.2974C243.929 18.1893 245.08 15.8873 247.382 14.2757C249.684 12.6642 252.677 11.9736 256.245 11.9736C259.354 11.9736 262.117 12.5491 264.304 13.8153C266.491 15.0814 268.103 16.5779 268.908 18.4196L263.498 21.8728C262.922 21.0671 262.001 20.2613 260.505 19.4555C259.008 18.6498 257.512 18.3045 256.016 18.3045C253.368 18.3045 252.102 19.2253 252.102 20.952C252.102 21.4124 252.217 21.8728 252.447 22.2181C252.677 22.5635 253.138 22.9088 253.598 23.1391C254.174 23.4843 254.634 23.5994 254.98 23.8297C255.325 23.9448 255.9 24.175 256.707 24.4053C257.512 24.6354 257.972 24.7505 258.203 24.8656C258.203 24.8656 258.548 24.9808 259.123 25.0959L260.275 25.4411C260.505 25.5562 260.966 25.6714 261.541 25.9016C262.117 26.1318 262.577 26.3621 263.037 26.5922C263.382 26.8225 263.844 27.0527 264.418 27.3979C264.995 27.7433 265.455 28.0887 265.8 28.4339C266.145 28.7793 266.491 29.1246 266.951 29.585C267.412 30.0455 267.758 30.506 267.987 30.9663C268.218 31.4268 268.448 32.0023 268.678 32.5779C268.908 33.1534 268.908 33.844 268.908 34.4196C268.908 37.6426 267.758 40.0598 265.569 41.7865C263.382 43.5131 260.275 44.3188 256.245 44.3188C252.677 44.3188 249.799 43.6282 247.382 42.1318C244.965 40.6354 243.353 38.9087 242.547 36.8368L248.072 33.1534ZM278.372 0V24.4029L288.272 12.6619H298.056L285.855 27.1655L299.438 43.2805H289.652L278.372 29.928V43.2805H270.084V0H278.372ZM25.6702 24.6319C24.1737 23.1355 22.2168 22.3298 19.5692 22.3298C17.2669 22.3298 15.31 22.9054 13.9286 24.1716C12.4322 23.0205 10.5904 22.3298 8.28812 22.3298C5.75564 22.3298 3.68361 23.1355 2.18714 24.6319C0.690676 26.1284 0 27.9701 0 30.1571V43.6248H5.29519V30.7326C5.29519 29.5816 5.52541 28.7758 6.10097 28.3153C6.67654 27.855 7.36721 27.6247 8.173 27.6247C8.97879 27.6247 9.66947 27.855 10.245 28.3153C10.9357 28.7758 11.281 29.5816 11.281 30.7326V43.6248H16.5763V30.7326C16.5763 29.5816 16.8064 28.7758 17.382 28.3153C17.9575 27.855 18.6483 27.6247 19.454 27.6247C20.2598 27.6247 20.9505 27.855 21.526 28.3153C22.1017 28.7758 22.3318 29.5816 22.3318 30.7326V43.6248H27.6271V30.1571C27.8573 27.9701 27.0514 26.1284 25.6702 24.6319ZM33.2768 22.0976L38.457 35.335L43.7521 22.0976H49.738L37.9965 51.6803H32.356L35.6942 43.1623L27.4061 22.0976H33.2768Z" fill="#FF4473"/>
</g>
<defs>
<clipPath id="clip0_476_11337">
<rect width="300" height="51.6807" fill="white"/>
</clipPath>
</defs>
</svg>
